G04 ================== begin FILE IDENTIFICATION RECORD ==================*
G04 Layout Name:  C:/orcadnou/allegro/ULTIMUL_PCBEDIT.brd*
G04 Film Name:    FAB*
G04 File Format:  Gerber RS274X*
G04 File Origin:  Cadence Allegro 17.2-S025*
G04 Origin Date:  Fri Dec 13 14:30:19 2024*
G04 *
G04 Layer:  MANUFACTURING/NCDRILL_LEGEND*
G04 Layer:  MANUFACTURING/NCDRILL_FIGURE*
G04 Layer:  MANUFACTURING/XSECTION_CHART*
G04 Layer:  MANUFACTURING/NCLEGEND-1-2*
G04 Layer:  BOARD GEOMETRY/DIMENSION*
G04 Layer:  BOARD GEOMETRY/DESIGN_OUTLINE*
G04 *
G04 Offset:    (0.00 0.00)*
G04 Mirror:    No*
G04 Mode:      Positive*
G04 Rotation:  0*
G04 FullContactRelief:  No*
G04 UndefLineWidth:     0.30*
G04 ================== end FILE IDENTIFICATION RECORD ====================*
%FSLAX25Y25*MOIN*%
%IR0*IPPOS*OFA0.00000B0.00000*MIA0B0*SFA1.00000B1.00000*%
%AMMACRO10*
1,1,.0003,.025,0.0*
20,1,.0003,.025,0.0,.02462,-.004341,0.0*
1,1,.0003,.02462,-.004341*
20,1,.0003,.02462,-.004341,.023492,-.008551,0.0*
1,1,.0003,.023492,-.008551*
20,1,.0003,.023492,-.008551,.021651,-.0125,0.0*
1,1,.0003,.021651,-.0125*
20,1,.0003,.021651,-.0125,.019151,-.01607,0.0*
1,1,.0003,.019151,-.01607*
20,1,.0003,.019151,-.01607,.01607,-.019151,0.0*
1,1,.0003,.01607,-.019151*
20,1,.0003,.01607,-.019151,.0125,-.021651,0.0*
1,1,.0003,.0125,-.021651*
20,1,.0003,.0125,-.021651,.008551,-.023492,0.0*
1,1,.0003,.008551,-.023492*
20,1,.0003,.008551,-.023492,.004341,-.02462,0.0*
1,1,.0003,.004341,-.02462*
20,1,.0003,.004341,-.02462,0.0,-.025,0.0*
1,1,.0003,0.0,-.025*
20,1,.0003,0.0,-.025,-.004341,-.02462,0.0*
1,1,.0003,-.004341,-.02462*
20,1,.0003,-.004341,-.02462,-.008551,-.023492,0.0*
1,1,.0003,-.008551,-.023492*
20,1,.0003,-.008551,-.023492,-.0125,-.021651,0.0*
1,1,.0003,-.0125,-.021651*
20,1,.0003,-.0125,-.021651,-.01607,-.019151,0.0*
1,1,.0003,-.01607,-.019151*
20,1,.0003,-.01607,-.019151,-.019151,-.01607,0.0*
1,1,.0003,-.019151,-.01607*
20,1,.0003,-.019151,-.01607,-.021651,-.0125,0.0*
1,1,.0003,-.021651,-.0125*
20,1,.0003,-.021651,-.0125,-.023492,-.008551,0.0*
1,1,.0003,-.023492,-.008551*
20,1,.0003,-.023492,-.008551,-.02462,-.004341,0.0*
1,1,.0003,-.02462,-.004341*
20,1,.0003,-.02462,-.004341,-.025,0.0,0.0*
1,1,.0003,-.025,0.0*
20,1,.0003,-.025,0.0,-.02462,.004341,0.0*
1,1,.0003,-.02462,.004341*
20,1,.0003,-.02462,.004341,-.023492,.008551,0.0*
1,1,.0003,-.023492,.008551*
20,1,.0003,-.023492,.008551,-.021651,.0125,0.0*
1,1,.0003,-.021651,.0125*
20,1,.0003,-.021651,.0125,-.019151,.01607,0.0*
1,1,.0003,-.019151,.01607*
20,1,.0003,-.019151,.01607,-.01607,.019151,0.0*
1,1,.0003,-.01607,.019151*
20,1,.0003,-.01607,.019151,-.0125,.021651,0.0*
1,1,.0003,-.0125,.021651*
20,1,.0003,-.0125,.021651,-.008551,.023492,0.0*
1,1,.0003,-.008551,.023492*
20,1,.0003,-.008551,.023492,-.004341,.02462,0.0*
1,1,.0003,-.004341,.02462*
20,1,.0003,-.004341,.02462,0.0,.025,0.0*
1,1,.0003,0.0,.025*
20,1,.0003,0.0,.025,.004341,.02462,0.0*
1,1,.0003,.004341,.02462*
20,1,.0003,.004341,.02462,.008551,.023492,0.0*
1,1,.0003,.008551,.023492*
20,1,.0003,.008551,.023492,.0125,.021651,0.0*
1,1,.0003,.0125,.021651*
20,1,.0003,.0125,.021651,.01607,.019151,0.0*
1,1,.0003,.01607,.019151*
20,1,.0003,.01607,.019151,.019151,.01607,0.0*
1,1,.0003,.019151,.01607*
20,1,.0003,.019151,.01607,.021651,.0125,0.0*
1,1,.0003,.021651,.0125*
20,1,.0003,.021651,.0125,.023492,.008551,0.0*
1,1,.0003,.023492,.008551*
20,1,.0003,.023492,.008551,.02462,.004341,0.0*
1,1,.0003,.02462,.004341*
20,1,.0003,.02462,.004341,.025,0.0,0.0*
1,1,.0003,.025,0.0*
1,1,.0003,.0125,0.0*
20,1,.0003,.0125,0.0,-.0125,0.0,0.0*
1,1,.0003,-.0125,0.0*
1,1,.0003,0.0,.0125*
20,1,.0003,0.0,.0125,0.0,-.0125,0.0*
1,1,.0003,0.0,-.0125*
%
%ADD10MACRO10*%
%ADD11C,.0003*%
G75*
%LPD*%
G75*
G36*
G01X-148400Y84138D02*
Y81871D01*
X-145900D01*
Y-115169D01*
X-148400D01*
Y-117436D01*
X-133400D01*
Y-115169D01*
X-135900D01*
Y81871D01*
X-133400D01*
Y84138D01*
X-148400D01*
G37*
G36*
G01X-168400Y-117435D02*
Y-115168D01*
X-108400D01*
Y-117435D01*
X-168400D01*
G37*
G36*
G01Y81871D02*
Y84138D01*
X-108400D01*
Y81871D01*
X-168400D01*
G37*
G54D10*
X15400Y128000D03*
X49150Y-117500D03*
X35000Y107500D03*
X32500Y92500D03*
X67500Y47500D03*
X72500Y70000D03*
X117500Y67500D03*
X97600Y118600D03*
X148600Y134500D03*
G54D11*
G01X-166487Y-127667D02*
Y-125167D01*
X-165953D01*
X-165740Y-125292D01*
X-165580Y-125459D01*
X-165447Y-125709D01*
X-165340Y-126000D01*
X-165313Y-126417D01*
X-165340Y-126834D01*
X-165447Y-127125D01*
X-165580Y-127375D01*
X-165740Y-127542D01*
X-165953Y-127667D01*
X-166487D01*
G01X-163167D02*
X-164233D01*
Y-125167D01*
X-163167D01*
G01X-163593Y-126375D02*
X-164233D01*
G01X-162060Y-127334D02*
X-161847Y-127542D01*
X-161607Y-127667D01*
X-161393D01*
X-161180Y-127542D01*
X-161020Y-127334D01*
X-160940Y-127042D01*
X-160993Y-126750D01*
X-161127Y-126500D01*
X-161367Y-126334D01*
X-161687Y-126250D01*
X-161873Y-126084D01*
X-161953Y-125792D01*
X-161900Y-125500D01*
X-161767Y-125292D01*
X-161580Y-125167D01*
X-161393D01*
X-161207Y-125250D01*
X-161047Y-125459D01*
G01X-159620Y-125167D02*
X-158980D01*
G01X-159300D02*
Y-127667D01*
G01X-159620D02*
X-158980D01*
G01X-156940Y-126417D02*
X-156407D01*
Y-127167D01*
X-156567Y-127417D01*
X-156753Y-127584D01*
X-157020Y-127667D01*
X-157287Y-127584D01*
X-157473Y-127417D01*
X-157633Y-127167D01*
X-157740Y-126875D01*
X-157793Y-126542D01*
Y-126250D01*
X-157740Y-126000D01*
X-157633Y-125709D01*
X-157473Y-125459D01*
X-157313Y-125292D01*
X-157100Y-125167D01*
X-156913D01*
X-156700Y-125250D01*
X-156540Y-125417D01*
G01X-155513Y-127667D02*
Y-125167D01*
X-154287Y-127667D01*
Y-125167D01*
G01X-149913Y-125375D02*
X-150073Y-125250D01*
X-150260Y-125167D01*
X-150473D01*
X-150713Y-125292D01*
X-150900Y-125500D01*
X-151033Y-125750D01*
X-151140Y-126167D01*
X-151167Y-126542D01*
X-151113Y-126917D01*
X-151033Y-127167D01*
X-150873Y-127417D01*
X-150687Y-127584D01*
X-150500Y-127667D01*
X-150313D01*
X-150127Y-127584D01*
X-149967Y-127459D01*
X-149833Y-127292D01*
G01X-148833Y-127667D02*
Y-125167D01*
X-148167D01*
X-147953Y-125292D01*
X-147820Y-125459D01*
X-147767Y-125792D01*
X-147820Y-126125D01*
X-147980Y-126334D01*
X-148167Y-126459D01*
X-148833D01*
G01X-148167D02*
X-147767Y-127667D01*
G01X-146100D02*
X-146313Y-127625D01*
X-146500Y-127459D01*
X-146660Y-127209D01*
X-146767Y-126917D01*
X-146820Y-126584D01*
Y-126250D01*
X-146767Y-125917D01*
X-146660Y-125625D01*
X-146500Y-125375D01*
X-146313Y-125209D01*
X-146100Y-125167D01*
X-145887Y-125209D01*
X-145700Y-125375D01*
X-145540Y-125625D01*
X-145433Y-125917D01*
X-145380Y-126250D01*
Y-126584D01*
X-145433Y-126917D01*
X-145540Y-127209D01*
X-145700Y-127459D01*
X-145887Y-127625D01*
X-146100Y-127667D01*
G01X-144460Y-127334D02*
X-144247Y-127542D01*
X-144007Y-127667D01*
X-143793D01*
X-143580Y-127542D01*
X-143420Y-127334D01*
X-143340Y-127042D01*
X-143393Y-126750D01*
X-143527Y-126500D01*
X-143767Y-126334D01*
X-144087Y-126250D01*
X-144273Y-126084D01*
X-144353Y-125792D01*
X-144300Y-125500D01*
X-144167Y-125292D01*
X-143980Y-125167D01*
X-143793D01*
X-143607Y-125250D01*
X-143447Y-125459D01*
G01X-142260Y-127334D02*
X-142047Y-127542D01*
X-141807Y-127667D01*
X-141593D01*
X-141380Y-127542D01*
X-141220Y-127334D01*
X-141140Y-127042D01*
X-141193Y-126750D01*
X-141327Y-126500D01*
X-141567Y-126334D01*
X-141887Y-126250D01*
X-142073Y-126084D01*
X-142153Y-125792D01*
X-142100Y-125500D01*
X-141967Y-125292D01*
X-141780Y-125167D01*
X-141593D01*
X-141407Y-125250D01*
X-141247Y-125459D01*
G01X-137860Y-127334D02*
X-137647Y-127542D01*
X-137407Y-127667D01*
X-137193D01*
X-136980Y-127542D01*
X-136820Y-127334D01*
X-136740Y-127042D01*
X-136793Y-126750D01*
X-136927Y-126500D01*
X-137167Y-126334D01*
X-137487Y-126250D01*
X-137673Y-126084D01*
X-137753Y-125792D01*
X-137700Y-125500D01*
X-137567Y-125292D01*
X-137380Y-125167D01*
X-137193D01*
X-137007Y-125250D01*
X-136847Y-125459D01*
G01X-134567Y-127667D02*
X-135633D01*
Y-125167D01*
X-134567D01*
G01X-134993Y-126375D02*
X-135633D01*
G01X-132313Y-125375D02*
X-132473Y-125250D01*
X-132660Y-125167D01*
X-132873D01*
X-133113Y-125292D01*
X-133300Y-125500D01*
X-133433Y-125750D01*
X-133540Y-126167D01*
X-133567Y-126542D01*
X-133513Y-126917D01*
X-133433Y-127167D01*
X-133273Y-127417D01*
X-133087Y-127584D01*
X-132900Y-127667D01*
X-132713D01*
X-132527Y-127584D01*
X-132367Y-127459D01*
X-132233Y-127292D01*
G01X-130700Y-125167D02*
Y-127667D01*
G01X-131313Y-125167D02*
X-130087D01*
G01X-128820D02*
X-128180D01*
G01X-128500D02*
Y-127667D01*
G01X-128820D02*
X-128180D01*
G01X-126300D02*
X-126513Y-127625D01*
X-126700Y-127459D01*
X-126860Y-127209D01*
X-126967Y-126917D01*
X-127020Y-126584D01*
Y-126250D01*
X-126967Y-125917D01*
X-126860Y-125625D01*
X-126700Y-125375D01*
X-126513Y-125209D01*
X-126300Y-125167D01*
X-126087Y-125209D01*
X-125900Y-125375D01*
X-125740Y-125625D01*
X-125633Y-125917D01*
X-125580Y-126250D01*
Y-126584D01*
X-125633Y-126917D01*
X-125740Y-127209D01*
X-125900Y-127459D01*
X-126087Y-127625D01*
X-126300Y-127667D01*
G01X-124713D02*
Y-125167D01*
X-123487Y-127667D01*
Y-125167D01*
G01X-119113Y-125375D02*
X-119273Y-125250D01*
X-119460Y-125167D01*
X-119673D01*
X-119913Y-125292D01*
X-120100Y-125500D01*
X-120233Y-125750D01*
X-120340Y-126167D01*
X-120367Y-126542D01*
X-120313Y-126917D01*
X-120233Y-127167D01*
X-120073Y-127417D01*
X-119887Y-127584D01*
X-119700Y-127667D01*
X-119513D01*
X-119327Y-127584D01*
X-119167Y-127459D01*
X-119033Y-127292D01*
G01X-118060Y-127667D02*
Y-125167D01*
G01X-116940D02*
Y-127667D01*
G01Y-126417D02*
X-118060D01*
G01X-115967Y-127667D02*
X-115300Y-125167D01*
X-114633Y-127667D01*
G01X-114873Y-126792D02*
X-115727D01*
G01X-113633Y-127667D02*
Y-125167D01*
X-112967D01*
X-112753Y-125292D01*
X-112620Y-125459D01*
X-112567Y-125792D01*
X-112620Y-126125D01*
X-112780Y-126334D01*
X-112967Y-126459D01*
X-113633D01*
G01X-112967D02*
X-112567Y-127667D01*
G01X-110900Y-125167D02*
Y-127667D01*
G01X-111513Y-125167D02*
X-110287D01*
G01X-167800Y-128500D02*
X-166200D01*
G01X-165600D02*
X-164000D01*
G01X-163400D02*
X-161800D01*
G01X-161200D02*
X-159600D01*
G01X-159000D02*
X-157400D01*
G01X-156800D02*
X-155200D01*
G01X-154600D02*
X-153000D01*
G01X-152400D02*
X-150800D01*
G01X-150200D02*
X-148600D01*
G01X-148000D02*
X-146400D01*
G01X-145800D02*
X-144200D01*
G01X-143600D02*
X-142000D01*
G01X-141400D02*
X-139800D01*
G01X-139200D02*
X-137600D01*
G01X-137000D02*
X-135400D01*
G01X-134800D02*
X-133200D01*
G01X-132600D02*
X-131000D01*
G01X-130400D02*
X-128800D01*
G01X-128200D02*
X-126600D01*
G01X-126000D02*
X-124400D01*
G01X-123800D02*
X-122200D01*
G01X-121600D02*
X-120000D01*
G01X-119400D02*
X-117800D01*
G01X-117200D02*
X-115600D01*
G01X-115000D02*
X-113400D01*
G01X-112800D02*
X-111200D01*
G01X-110600D02*
X-109000D01*
G01X-165900Y-129667D02*
Y-132167D01*
G01X-166513Y-129667D02*
X-165287D01*
G01X-163700Y-132167D02*
X-163913Y-132125D01*
X-164100Y-131959D01*
X-164260Y-131709D01*
X-164367Y-131417D01*
X-164420Y-131084D01*
Y-130750D01*
X-164367Y-130417D01*
X-164260Y-130125D01*
X-164100Y-129875D01*
X-163913Y-129709D01*
X-163700Y-129667D01*
X-163487Y-129709D01*
X-163300Y-129875D01*
X-163140Y-130125D01*
X-163033Y-130417D01*
X-162980Y-130750D01*
Y-131084D01*
X-163033Y-131417D01*
X-163140Y-131709D01*
X-163300Y-131959D01*
X-163487Y-132125D01*
X-163700Y-132167D01*
G01X-161500Y-129667D02*
Y-132167D01*
G01X-162113Y-129667D02*
X-160887D01*
G01X-159967Y-132167D02*
X-159300Y-129667D01*
X-158633Y-132167D01*
G01X-158873Y-131292D02*
X-159727D01*
G01X-157633Y-129667D02*
Y-132167D01*
X-156567D01*
G01X-152700Y-129667D02*
Y-132167D01*
G01X-153313Y-129667D02*
X-152087D01*
G01X-151060Y-132167D02*
Y-129667D01*
G01X-149940D02*
Y-132167D01*
G01Y-130917D02*
X-151060D01*
G01X-148620Y-129667D02*
X-147980D01*
G01X-148300D02*
Y-132167D01*
G01X-148620D02*
X-147980D01*
G01X-145513Y-129875D02*
X-145673Y-129750D01*
X-145860Y-129667D01*
X-146073D01*
X-146313Y-129792D01*
X-146500Y-130000D01*
X-146633Y-130250D01*
X-146740Y-130667D01*
X-146767Y-131042D01*
X-146713Y-131417D01*
X-146633Y-131667D01*
X-146473Y-131917D01*
X-146287Y-132084D01*
X-146100Y-132167D01*
X-145913D01*
X-145727Y-132084D01*
X-145567Y-131959D01*
X-145433Y-131792D01*
G01X-144487Y-132167D02*
Y-129667D01*
G01X-143473D02*
X-144487Y-131209D01*
G01X-143313Y-132167D02*
X-144033Y-130500D01*
G01X-142313Y-132167D02*
Y-129667D01*
X-141087Y-132167D01*
Y-129667D01*
G01X-138967Y-132167D02*
X-140033D01*
Y-129667D01*
X-138967D01*
G01X-139393Y-130875D02*
X-140033D01*
G01X-137860Y-131834D02*
X-137647Y-132042D01*
X-137407Y-132167D01*
X-137193D01*
X-136980Y-132042D01*
X-136820Y-131834D01*
X-136740Y-131542D01*
X-136793Y-131250D01*
X-136927Y-131000D01*
X-137167Y-130834D01*
X-137487Y-130750D01*
X-137673Y-130584D01*
X-137753Y-130292D01*
X-137700Y-130000D01*
X-137567Y-129792D01*
X-137380Y-129667D01*
X-137193D01*
X-137007Y-129750D01*
X-136847Y-129959D01*
G01X-135660Y-131834D02*
X-135447Y-132042D01*
X-135207Y-132167D01*
X-134993D01*
X-134780Y-132042D01*
X-134620Y-131834D01*
X-134540Y-131542D01*
X-134593Y-131250D01*
X-134727Y-131000D01*
X-134967Y-130834D01*
X-135287Y-130750D01*
X-135473Y-130584D01*
X-135553Y-130292D01*
X-135500Y-130000D01*
X-135367Y-129792D01*
X-135180Y-129667D01*
X-134993D01*
X-134807Y-129750D01*
X-134647Y-129959D01*
G01X-131207Y-131125D02*
X-131020Y-130834D01*
X-130860Y-130667D01*
X-130647Y-130584D01*
X-130460Y-130667D01*
X-130327Y-130834D01*
X-130220Y-131084D01*
X-130193Y-131375D01*
X-130220Y-131625D01*
X-130327Y-131875D01*
X-130487Y-132084D01*
X-130673Y-132167D01*
X-130887Y-132084D01*
X-131073Y-131834D01*
X-131180Y-131459D01*
X-131207Y-131042D01*
X-131153Y-130500D01*
X-131073Y-130209D01*
X-130940Y-129917D01*
X-130753Y-129709D01*
X-130567Y-129667D01*
X-130380Y-129750D01*
X-130247Y-129959D01*
G01X-129007Y-130084D02*
X-128847Y-129834D01*
X-128660Y-129709D01*
X-128447Y-129667D01*
X-128180Y-129750D01*
X-127993Y-129959D01*
X-127940Y-130209D01*
X-127967Y-130459D01*
X-128073Y-130667D01*
X-128607Y-131084D01*
X-128847Y-131375D01*
X-129007Y-131792D01*
X-129060Y-132167D01*
X-127940D01*
G01X-126300Y-132250D02*
X-126353Y-132209D01*
Y-132125D01*
X-126300Y-132084D01*
X-126247Y-132125D01*
Y-132209D01*
X-126300Y-132250D01*
G01X-124553Y-131875D02*
X-124367Y-132084D01*
X-124153Y-132167D01*
X-123940Y-132084D01*
X-123753Y-131834D01*
X-123620Y-131459D01*
X-123567Y-131084D01*
Y-130625D01*
X-123620Y-130250D01*
X-123753Y-129917D01*
X-123913Y-129750D01*
X-124100Y-129667D01*
X-124313Y-129750D01*
X-124473Y-129917D01*
X-124580Y-130167D01*
X-124633Y-130500D01*
X-124580Y-130792D01*
X-124447Y-131084D01*
X-124287Y-131250D01*
X-124100Y-131292D01*
X-123887Y-131209D01*
X-123727Y-131000D01*
X-123567Y-130625D01*
G01X-122353Y-131875D02*
X-122167Y-132084D01*
X-121953Y-132167D01*
X-121740Y-132084D01*
X-121553Y-131834D01*
X-121420Y-131459D01*
X-121367Y-131084D01*
Y-130625D01*
X-121420Y-130250D01*
X-121553Y-129917D01*
X-121713Y-129750D01*
X-121900Y-129667D01*
X-122113Y-129750D01*
X-122273Y-129917D01*
X-122380Y-130167D01*
X-122433Y-130500D01*
X-122380Y-130792D01*
X-122247Y-131084D01*
X-122087Y-131250D01*
X-121900Y-131292D01*
X-121687Y-131209D01*
X-121527Y-131000D01*
X-121367Y-130625D01*
G01X-120207Y-130084D02*
X-120047Y-129834D01*
X-119860Y-129709D01*
X-119647Y-129667D01*
X-119380Y-129750D01*
X-119193Y-129959D01*
X-119140Y-130209D01*
X-119167Y-130459D01*
X-119273Y-130667D01*
X-119807Y-131084D01*
X-120047Y-131375D01*
X-120207Y-131792D01*
X-120260Y-132167D01*
X-119140D01*
G01X-115993D02*
Y-129667D01*
X-115300Y-131750D01*
X-114607Y-129667D01*
Y-132167D01*
G01X-113420Y-129667D02*
X-112780D01*
G01X-113100D02*
Y-132167D01*
G01X-113420D02*
X-112780D01*
G01X-111433Y-129667D02*
Y-132167D01*
X-110367D01*
G01X-168400Y-115168D02*
Y81871D01*
X-108400D01*
Y-115168D01*
X-168400D01*
G01X-140900Y87438D02*
X-143400D01*
X-142900Y87118D01*
G01X-140900D02*
Y87758D01*
G01X-141733Y89291D02*
Y89985D01*
G01X-142983Y91331D02*
X-143233Y91491D01*
X-143358Y91678D01*
X-143400Y91891D01*
X-143317Y92158D01*
X-143108Y92345D01*
X-142858Y92398D01*
X-142608Y92371D01*
X-142400Y92265D01*
X-141983Y91731D01*
X-141692Y91491D01*
X-141275Y91331D01*
X-140900Y91278D01*
Y92398D01*
G01X-101587Y-121917D02*
X-100413Y-120084D01*
G01X-101000Y-119751D02*
Y-122251D01*
G01X-100413Y-121917D02*
X-101587Y-120084D01*
G01X-101800Y-121001D02*
X-100200D01*
G01X-94960Y-121501D02*
X-94747Y-121709D01*
X-94507Y-121834D01*
X-94293D01*
X-94080Y-121709D01*
X-93920Y-121501D01*
X-93840Y-121209D01*
X-93893Y-120917D01*
X-94027Y-120667D01*
X-94267Y-120501D01*
X-94587Y-120417D01*
X-94773Y-120251D01*
X-94853Y-119959D01*
X-94800Y-119667D01*
X-94667Y-119459D01*
X-94480Y-119334D01*
X-94293D01*
X-94107Y-119417D01*
X-93947Y-119626D01*
G01X-92787Y-119334D02*
Y-121126D01*
X-92680Y-121501D01*
X-92467Y-121751D01*
X-92200Y-121834D01*
X-91933Y-121751D01*
X-91720Y-121501D01*
X-91613Y-121126D01*
Y-119334D01*
G01X-90533Y-121834D02*
Y-119334D01*
X-89867D01*
X-89653Y-119459D01*
X-89520Y-119626D01*
X-89467Y-119959D01*
X-89520Y-120292D01*
X-89680Y-120501D01*
X-89867Y-120626D01*
X-90533D01*
G01X-89867D02*
X-89467Y-121834D01*
G01X-88307D02*
Y-119334D01*
X-87293D01*
G01X-87667Y-120542D02*
X-88307D01*
G01X-86267Y-121834D02*
X-85600Y-119334D01*
X-84933Y-121834D01*
G01X-85173Y-120959D02*
X-86027D01*
G01X-82813Y-119542D02*
X-82973Y-119417D01*
X-83160Y-119334D01*
X-83373D01*
X-83613Y-119459D01*
X-83800Y-119667D01*
X-83933Y-119917D01*
X-84040Y-120334D01*
X-84067Y-120709D01*
X-84013Y-121084D01*
X-83933Y-121334D01*
X-83773Y-121584D01*
X-83587Y-121751D01*
X-83400Y-121834D01*
X-83213D01*
X-83027Y-121751D01*
X-82867Y-121626D01*
X-82733Y-121459D01*
G01X-80667Y-121834D02*
X-81733D01*
Y-119334D01*
X-80667D01*
G01X-81093Y-120542D02*
X-81733D01*
G01X-105933Y-116001D02*
Y-118501D01*
X-104867D01*
G01X-103707Y-116418D02*
X-103547Y-116168D01*
X-103360Y-116043D01*
X-103147Y-116001D01*
X-102880Y-116084D01*
X-102693Y-116293D01*
X-102640Y-116543D01*
X-102667Y-116793D01*
X-102773Y-117001D01*
X-103307Y-117418D01*
X-103547Y-117709D01*
X-103707Y-118126D01*
X-103760Y-118501D01*
X-102640D01*
G01X-98587Y-117168D02*
X-98480Y-117043D01*
X-98400Y-116834D01*
X-98347Y-116543D01*
X-98400Y-116293D01*
X-98507Y-116126D01*
X-98693Y-116001D01*
X-99413D01*
Y-118501D01*
X-98533D01*
X-98347Y-118334D01*
X-98240Y-118084D01*
X-98187Y-117793D01*
X-98240Y-117501D01*
X-98400Y-117251D01*
X-98587Y-117168D01*
X-99413D01*
G01X-96600Y-118501D02*
X-96813Y-118459D01*
X-97000Y-118293D01*
X-97160Y-118043D01*
X-97267Y-117751D01*
X-97320Y-117418D01*
Y-117084D01*
X-97267Y-116751D01*
X-97160Y-116459D01*
X-97000Y-116209D01*
X-96813Y-116043D01*
X-96600Y-116001D01*
X-96387Y-116043D01*
X-96200Y-116209D01*
X-96040Y-116459D01*
X-95933Y-116751D01*
X-95880Y-117084D01*
Y-117418D01*
X-95933Y-117751D01*
X-96040Y-118043D01*
X-96200Y-118293D01*
X-96387Y-118459D01*
X-96600Y-118501D01*
G01X-94400Y-116001D02*
Y-118501D01*
G01X-95013Y-116001D02*
X-93787D01*
G01X-92200D02*
Y-118501D01*
G01X-92813Y-116001D02*
X-91587D01*
G01X-90000Y-118501D02*
X-90213Y-118459D01*
X-90400Y-118293D01*
X-90560Y-118043D01*
X-90667Y-117751D01*
X-90720Y-117418D01*
Y-117084D01*
X-90667Y-116751D01*
X-90560Y-116459D01*
X-90400Y-116209D01*
X-90213Y-116043D01*
X-90000Y-116001D01*
X-89787Y-116043D01*
X-89600Y-116209D01*
X-89440Y-116459D01*
X-89333Y-116751D01*
X-89280Y-117084D01*
Y-117418D01*
X-89333Y-117751D01*
X-89440Y-118043D01*
X-89600Y-118293D01*
X-89787Y-118459D01*
X-90000Y-118501D01*
G01X-88493D02*
Y-116001D01*
X-87800Y-118084D01*
X-87107Y-116001D01*
Y-118501D01*
G01X-82813Y-116209D02*
X-82973Y-116084D01*
X-83160Y-116001D01*
X-83373D01*
X-83613Y-116126D01*
X-83800Y-116334D01*
X-83933Y-116584D01*
X-84040Y-117001D01*
X-84067Y-117376D01*
X-84013Y-117751D01*
X-83933Y-118001D01*
X-83773Y-118251D01*
X-83587Y-118418D01*
X-83400Y-118501D01*
X-83213D01*
X-83027Y-118418D01*
X-82867Y-118293D01*
X-82733Y-118126D01*
G01X-81200Y-118501D02*
X-81413Y-118459D01*
X-81600Y-118293D01*
X-81760Y-118043D01*
X-81867Y-117751D01*
X-81920Y-117418D01*
Y-117084D01*
X-81867Y-116751D01*
X-81760Y-116459D01*
X-81600Y-116209D01*
X-81413Y-116043D01*
X-81200Y-116001D01*
X-80987Y-116043D01*
X-80800Y-116209D01*
X-80640Y-116459D01*
X-80533Y-116751D01*
X-80480Y-117084D01*
Y-117418D01*
X-80533Y-117751D01*
X-80640Y-118043D01*
X-80800Y-118293D01*
X-80987Y-118459D01*
X-81200Y-118501D01*
G01X-79613D02*
Y-116001D01*
X-78387Y-118501D01*
Y-116001D01*
G01X-77387Y-118501D02*
Y-116001D01*
X-76853D01*
X-76640Y-116126D01*
X-76480Y-116293D01*
X-76347Y-116543D01*
X-76240Y-116834D01*
X-76213Y-117251D01*
X-76240Y-117668D01*
X-76347Y-117959D01*
X-76480Y-118209D01*
X-76640Y-118376D01*
X-76853Y-118501D01*
X-77387D01*
G01X-75187Y-116001D02*
Y-117793D01*
X-75080Y-118168D01*
X-74867Y-118418D01*
X-74600Y-118501D01*
X-74333Y-118418D01*
X-74120Y-118168D01*
X-74013Y-117793D01*
Y-116001D01*
G01X-71813Y-116209D02*
X-71973Y-116084D01*
X-72160Y-116001D01*
X-72373D01*
X-72613Y-116126D01*
X-72800Y-116334D01*
X-72933Y-116584D01*
X-73040Y-117001D01*
X-73067Y-117376D01*
X-73013Y-117751D01*
X-72933Y-118001D01*
X-72773Y-118251D01*
X-72587Y-118418D01*
X-72400Y-118501D01*
X-72213D01*
X-72027Y-118418D01*
X-71867Y-118293D01*
X-71733Y-118126D01*
G01X-70200Y-116001D02*
Y-118501D01*
G01X-70813Y-116001D02*
X-69587D01*
G01X-68000Y-118501D02*
X-68213Y-118459D01*
X-68400Y-118293D01*
X-68560Y-118043D01*
X-68667Y-117751D01*
X-68720Y-117418D01*
Y-117084D01*
X-68667Y-116751D01*
X-68560Y-116459D01*
X-68400Y-116209D01*
X-68213Y-116043D01*
X-68000Y-116001D01*
X-67787Y-116043D01*
X-67600Y-116209D01*
X-67440Y-116459D01*
X-67333Y-116751D01*
X-67280Y-117084D01*
Y-117418D01*
X-67333Y-117751D01*
X-67440Y-118043D01*
X-67600Y-118293D01*
X-67787Y-118459D01*
X-68000Y-118501D01*
G01X-66333D02*
Y-116001D01*
X-65667D01*
X-65453Y-116126D01*
X-65320Y-116293D01*
X-65267Y-116626D01*
X-65320Y-116959D01*
X-65480Y-117168D01*
X-65667Y-117293D01*
X-66333D01*
G01X-65667D02*
X-65267Y-118501D01*
G01X-101587Y-16731D02*
X-100413Y-14898D01*
G01X-101000Y-14565D02*
Y-17065D01*
G01X-100413Y-16731D02*
X-101587Y-14898D01*
G01X-101800Y-15815D02*
X-100200D01*
G01X-94987Y-16648D02*
Y-14148D01*
X-94453D01*
X-94240Y-14273D01*
X-94080Y-14440D01*
X-93947Y-14690D01*
X-93840Y-14981D01*
X-93813Y-15398D01*
X-93840Y-15815D01*
X-93947Y-16106D01*
X-94080Y-16356D01*
X-94240Y-16523D01*
X-94453Y-16648D01*
X-94987D01*
G01X-92520Y-14148D02*
X-91880D01*
G01X-92200D02*
Y-16648D01*
G01X-92520D02*
X-91880D01*
G01X-89467D02*
X-90533D01*
Y-14148D01*
X-89467D01*
G01X-89893Y-15356D02*
X-90533D01*
G01X-88333Y-14148D02*
Y-16648D01*
X-87267D01*
G01X-85067D02*
X-86133D01*
Y-14148D01*
X-85067D01*
G01X-85493Y-15356D02*
X-86133D01*
G01X-82813Y-14356D02*
X-82973Y-14231D01*
X-83160Y-14148D01*
X-83373D01*
X-83613Y-14273D01*
X-83800Y-14481D01*
X-83933Y-14731D01*
X-84040Y-15148D01*
X-84067Y-15523D01*
X-84013Y-15898D01*
X-83933Y-16148D01*
X-83773Y-16398D01*
X-83587Y-16565D01*
X-83400Y-16648D01*
X-83213D01*
X-83027Y-16565D01*
X-82867Y-16440D01*
X-82733Y-16273D01*
G01X-81200Y-14148D02*
Y-16648D01*
G01X-81813Y-14148D02*
X-80587D01*
G01X-79533Y-16648D02*
Y-14148D01*
X-78867D01*
X-78653Y-14273D01*
X-78520Y-14440D01*
X-78467Y-14773D01*
X-78520Y-15106D01*
X-78680Y-15315D01*
X-78867Y-15440D01*
X-79533D01*
G01X-78867D02*
X-78467Y-16648D01*
G01X-77120Y-14148D02*
X-76480D01*
G01X-76800D02*
Y-16648D01*
G01X-77120D02*
X-76480D01*
G01X-74013Y-14356D02*
X-74173Y-14231D01*
X-74360Y-14148D01*
X-74573D01*
X-74813Y-14273D01*
X-75000Y-14481D01*
X-75133Y-14731D01*
X-75240Y-15148D01*
X-75267Y-15523D01*
X-75213Y-15898D01*
X-75133Y-16148D01*
X-74973Y-16398D01*
X-74787Y-16565D01*
X-74600Y-16648D01*
X-74413D01*
X-74227Y-16565D01*
X-74067Y-16440D01*
X-73933Y-16273D01*
G01X-101587Y84888D02*
X-100413Y86721D01*
G01X-101000Y87054D02*
Y84554D01*
G01X-100413Y84888D02*
X-101587Y86721D01*
G01X-101800Y85804D02*
X-100200D01*
G01X-94960Y85304D02*
X-94747Y85096D01*
X-94507Y84971D01*
X-94293D01*
X-94080Y85096D01*
X-93920Y85304D01*
X-93840Y85596D01*
X-93893Y85888D01*
X-94027Y86138D01*
X-94267Y86304D01*
X-94587Y86388D01*
X-94773Y86554D01*
X-94853Y86846D01*
X-94800Y87138D01*
X-94667Y87346D01*
X-94480Y87471D01*
X-94293D01*
X-94107Y87388D01*
X-93947Y87179D01*
G01X-92787Y87471D02*
Y85679D01*
X-92680Y85304D01*
X-92467Y85054D01*
X-92200Y84971D01*
X-91933Y85054D01*
X-91720Y85304D01*
X-91613Y85679D01*
Y87471D01*
G01X-90533Y84971D02*
Y87471D01*
X-89867D01*
X-89653Y87346D01*
X-89520Y87179D01*
X-89467Y86846D01*
X-89520Y86513D01*
X-89680Y86304D01*
X-89867Y86179D01*
X-90533D01*
G01X-89867D02*
X-89467Y84971D01*
G01X-88307D02*
Y87471D01*
X-87293D01*
G01X-87667Y86263D02*
X-88307D01*
G01X-86267Y84971D02*
X-85600Y87471D01*
X-84933Y84971D01*
G01X-85173Y85846D02*
X-86027D01*
G01X-82813Y87263D02*
X-82973Y87388D01*
X-83160Y87471D01*
X-83373D01*
X-83613Y87346D01*
X-83800Y87138D01*
X-83933Y86888D01*
X-84040Y86471D01*
X-84067Y86096D01*
X-84013Y85721D01*
X-83933Y85471D01*
X-83773Y85221D01*
X-83587Y85054D01*
X-83400Y84971D01*
X-83213D01*
X-83027Y85054D01*
X-82867Y85179D01*
X-82733Y85346D01*
G01X-80667Y84971D02*
X-81733D01*
Y87471D01*
X-80667D01*
G01X-81093Y86263D02*
X-81733D01*
G01X-105933Y83305D02*
Y80805D01*
X-104867D01*
G01X-103200D02*
Y83305D01*
X-103520Y82805D01*
G01Y80805D02*
X-102880D01*
G01X-98800Y83305D02*
Y80805D01*
G01X-99413Y83305D02*
X-98187D01*
G01X-96600Y80805D02*
X-96813Y80847D01*
X-97000Y81013D01*
X-97160Y81263D01*
X-97267Y81555D01*
X-97320Y81888D01*
Y82222D01*
X-97267Y82555D01*
X-97160Y82847D01*
X-97000Y83097D01*
X-96813Y83263D01*
X-96600Y83305D01*
X-96387Y83263D01*
X-96200Y83097D01*
X-96040Y82847D01*
X-95933Y82555D01*
X-95880Y82222D01*
Y81888D01*
X-95933Y81555D01*
X-96040Y81263D01*
X-96200Y81013D01*
X-96387Y80847D01*
X-96600Y80805D01*
G01X-94933D02*
Y83305D01*
X-94293D01*
X-94080Y83180D01*
X-93920Y82888D01*
X-93867Y82555D01*
X-93920Y82222D01*
X-94053Y81972D01*
X-94293Y81847D01*
X-94933D01*
G01X-89413Y83097D02*
X-89573Y83222D01*
X-89760Y83305D01*
X-89973D01*
X-90213Y83180D01*
X-90400Y82972D01*
X-90533Y82722D01*
X-90640Y82305D01*
X-90667Y81930D01*
X-90613Y81555D01*
X-90533Y81305D01*
X-90373Y81055D01*
X-90187Y80888D01*
X-90000Y80805D01*
X-89813D01*
X-89627Y80888D01*
X-89467Y81013D01*
X-89333Y81180D01*
G01X-87800Y80805D02*
X-88013Y80847D01*
X-88200Y81013D01*
X-88360Y81263D01*
X-88467Y81555D01*
X-88520Y81888D01*
Y82222D01*
X-88467Y82555D01*
X-88360Y82847D01*
X-88200Y83097D01*
X-88013Y83263D01*
X-87800Y83305D01*
X-87587Y83263D01*
X-87400Y83097D01*
X-87240Y82847D01*
X-87133Y82555D01*
X-87080Y82222D01*
Y81888D01*
X-87133Y81555D01*
X-87240Y81263D01*
X-87400Y81013D01*
X-87587Y80847D01*
X-87800Y80805D01*
G01X-86213D02*
Y83305D01*
X-84987Y80805D01*
Y83305D01*
G01X-83987Y80805D02*
Y83305D01*
X-83453D01*
X-83240Y83180D01*
X-83080Y83013D01*
X-82947Y82763D01*
X-82840Y82472D01*
X-82813Y82055D01*
X-82840Y81638D01*
X-82947Y81347D01*
X-83080Y81097D01*
X-83240Y80930D01*
X-83453Y80805D01*
X-83987D01*
G01X-81787Y83305D02*
Y81513D01*
X-81680Y81138D01*
X-81467Y80888D01*
X-81200Y80805D01*
X-80933Y80888D01*
X-80720Y81138D01*
X-80613Y81513D01*
Y83305D01*
G01X-78413Y83097D02*
X-78573Y83222D01*
X-78760Y83305D01*
X-78973D01*
X-79213Y83180D01*
X-79400Y82972D01*
X-79533Y82722D01*
X-79640Y82305D01*
X-79667Y81930D01*
X-79613Y81555D01*
X-79533Y81305D01*
X-79373Y81055D01*
X-79187Y80888D01*
X-79000Y80805D01*
X-78813D01*
X-78627Y80888D01*
X-78467Y81013D01*
X-78333Y81180D01*
G01X-76800Y83305D02*
Y80805D01*
G01X-77413Y83305D02*
X-76187D01*
G01X-74600Y80805D02*
X-74813Y80847D01*
X-75000Y81013D01*
X-75160Y81263D01*
X-75267Y81555D01*
X-75320Y81888D01*
Y82222D01*
X-75267Y82555D01*
X-75160Y82847D01*
X-75000Y83097D01*
X-74813Y83263D01*
X-74600Y83305D01*
X-74387Y83263D01*
X-74200Y83097D01*
X-74040Y82847D01*
X-73933Y82555D01*
X-73880Y82222D01*
Y81888D01*
X-73933Y81555D01*
X-74040Y81263D01*
X-74200Y81013D01*
X-74387Y80847D01*
X-74600Y80805D01*
G01X-72933D02*
Y83305D01*
X-72267D01*
X-72053Y83180D01*
X-71920Y83013D01*
X-71867Y82680D01*
X-71920Y82347D01*
X-72080Y82138D01*
X-72267Y82013D01*
X-72933D01*
G01X-72267D02*
X-71867Y80805D01*
G01X-10000Y0D02*
X-28100D01*
G01X-18100Y58675D02*
Y0D01*
G01X-20600Y15000D02*
X-18100Y0D01*
X-15600Y15000D01*
X-20600D01*
G01X-22440Y68050D02*
Y80550D01*
X-28175Y71592D01*
X-20425D01*
G01X-11900Y80550D02*
X-13140Y80133D01*
X-14070Y79092D01*
X-14690Y77842D01*
X-15155Y76175D01*
X-15310Y74300D01*
X-15155Y72425D01*
X-14690Y70758D01*
X-14070Y69508D01*
X-13140Y68467D01*
X-11900Y68050D01*
X-10660Y68467D01*
X-9730Y69508D01*
X-9110Y70758D01*
X-8645Y72425D01*
X-8490Y74300D01*
X-8645Y76175D01*
X-9110Y77842D01*
X-9730Y79092D01*
X-10660Y80133D01*
X-11900Y80550D01*
G01X-18100Y89925D02*
Y157480D01*
G01X-15600Y142480D02*
X-18100Y157480D01*
X-20600Y142480D01*
X-15600D01*
G01X-10000Y157480D02*
X-28100D01*
G01X4200Y-130000D02*
Y-30000D01*
X500200D01*
Y-130000D01*
X4200D01*
G01X15205Y-98750D02*
Y-86250D01*
X21095D01*
G01X18925Y-92292D02*
X15205D01*
G01X28690Y-86250D02*
X32410D01*
G01X30550D02*
Y-98750D01*
G01X28690D02*
X32410D01*
G01X43880Y-92500D02*
X46980D01*
Y-96250D01*
X46050Y-97500D01*
X44965Y-98333D01*
X43415Y-98750D01*
X41865Y-98333D01*
X40780Y-97500D01*
X39850Y-96250D01*
X39230Y-94792D01*
X38920Y-93125D01*
Y-91667D01*
X39230Y-90417D01*
X39850Y-88958D01*
X40780Y-87708D01*
X41710Y-86875D01*
X42950Y-86250D01*
X44035D01*
X45275Y-86667D01*
X46205Y-87500D01*
G01X51940Y-86250D02*
Y-95208D01*
X52560Y-97084D01*
X53800Y-98333D01*
X55350Y-98750D01*
X56900Y-98333D01*
X58140Y-97084D01*
X58760Y-95208D01*
Y-86250D01*
G01X64650Y-98750D02*
Y-86250D01*
X68525D01*
X69765Y-86875D01*
X70540Y-87708D01*
X70850Y-89375D01*
X70540Y-91042D01*
X69610Y-92083D01*
X68525Y-92708D01*
X64650D01*
G01X68525D02*
X70850Y-98750D01*
G01X83250D02*
X77050D01*
Y-86250D01*
X83250D01*
G01X80770Y-92292D02*
X77050D01*
G01X4200Y-105000D02*
X500200D01*
G01X4200Y-80000D02*
X500200D01*
G01X4200Y-55000D02*
X500200D01*
G01X0Y0D02*
Y157480D01*
X157480D01*
Y0D01*
X0D01*
G01Y167480D02*
Y177900D01*
G01X65175Y167900D02*
X0D01*
G01X15000Y170400D02*
X0Y167900D01*
X15000Y165400D01*
Y170400D01*
G01X81060Y161650D02*
Y174150D01*
X75325Y165192D01*
X83075D01*
G01X91600Y174150D02*
X90360Y173733D01*
X89430Y172692D01*
X88810Y171442D01*
X88345Y169775D01*
X88190Y167900D01*
X88345Y166025D01*
X88810Y164358D01*
X89430Y163108D01*
X90360Y162067D01*
X91600Y161650D01*
X92840Y162067D01*
X93770Y163108D01*
X94390Y164358D01*
X94855Y166025D01*
X95010Y167900D01*
X94855Y169775D01*
X94390Y171442D01*
X93770Y172692D01*
X92840Y173733D01*
X91600Y174150D01*
G01X94100Y-80000D02*
Y-130000D01*
G01X117505Y-98750D02*
Y-86250D01*
X123395D01*
G01X121225Y-92292D02*
X117505D01*
G01X130990Y-86250D02*
X134710D01*
G01X132850D02*
Y-98750D01*
G01X130990D02*
X134710D01*
G01X141685D02*
Y-86250D01*
X148815Y-98750D01*
Y-86250D01*
G01X155790D02*
X159510D01*
G01X157650D02*
Y-98750D01*
G01X155790D02*
X159510D01*
G01X166795Y-97084D02*
X168035Y-98125D01*
X169430Y-98750D01*
X170670D01*
X171910Y-98125D01*
X172840Y-97084D01*
X173305Y-95625D01*
X172995Y-94167D01*
X172220Y-92917D01*
X170825Y-92083D01*
X168965Y-91667D01*
X167880Y-90833D01*
X167415Y-89375D01*
X167725Y-87917D01*
X168500Y-86875D01*
X169585Y-86250D01*
X170670D01*
X171755Y-86667D01*
X172685Y-87708D01*
G01X179195Y-98750D02*
Y-86250D01*
G01X185705D02*
Y-98750D01*
G01Y-92500D02*
X179195D01*
G01X197950Y-98750D02*
X191750D01*
Y-86250D01*
X197950D01*
G01X195470Y-92292D02*
X191750D01*
G01X203840Y-98750D02*
Y-86250D01*
X206940D01*
X208180Y-86875D01*
X209110Y-87708D01*
X209885Y-88958D01*
X210505Y-90417D01*
X210660Y-92500D01*
X210505Y-94583D01*
X209885Y-96042D01*
X209110Y-97292D01*
X208180Y-98125D01*
X206940Y-98750D01*
X203840D01*
G01X215000Y-102917D02*
X224300D01*
G01X228795Y-97084D02*
X230035Y-98125D01*
X231430Y-98750D01*
X232670D01*
X233910Y-98125D01*
X234840Y-97084D01*
X235305Y-95625D01*
X234995Y-94167D01*
X234220Y-92917D01*
X232825Y-92083D01*
X230965Y-91667D01*
X229880Y-90833D01*
X229415Y-89375D01*
X229725Y-87917D01*
X230500Y-86875D01*
X231585Y-86250D01*
X232670D01*
X233755Y-86667D01*
X234685Y-87708D01*
G01X242590Y-86250D02*
X246310D01*
G01X244450D02*
Y-98750D01*
G01X242590D02*
X246310D01*
G01X253905Y-86250D02*
X259795D01*
X253905Y-98750D01*
X259795D01*
G01X272350D02*
X266150D01*
Y-86250D01*
X272350D01*
G01X269870Y-92292D02*
X266150D01*
G01X93790Y-48750D02*
Y-36250D01*
X96890D01*
X98130Y-36875D01*
X99060Y-37708D01*
X99835Y-38958D01*
X100455Y-40417D01*
X100610Y-42500D01*
X100455Y-44583D01*
X99835Y-46042D01*
X99060Y-47292D01*
X98130Y-48125D01*
X96890Y-48750D01*
X93790D01*
G01X106500D02*
Y-36250D01*
X110375D01*
X111615Y-36875D01*
X112390Y-37708D01*
X112700Y-39375D01*
X112390Y-41042D01*
X111460Y-42083D01*
X110375Y-42708D01*
X106500D01*
G01X110375D02*
X112700Y-48750D01*
G01X120140Y-36250D02*
X123860D01*
G01X122000D02*
Y-48750D01*
G01X120140D02*
X123860D01*
G01X131300Y-36250D02*
Y-48750D01*
X137500D01*
G01X143700Y-36250D02*
Y-48750D01*
X149900D01*
G01X175010Y-37292D02*
X174080Y-36667D01*
X172995Y-36250D01*
X171755D01*
X170360Y-36875D01*
X169275Y-37917D01*
X168500Y-39167D01*
X167880Y-41250D01*
X167725Y-43125D01*
X168035Y-45000D01*
X168500Y-46250D01*
X169430Y-47500D01*
X170515Y-48333D01*
X171600Y-48750D01*
X172685D01*
X173770Y-48333D01*
X174700Y-47709D01*
X175475Y-46875D01*
G01X180745Y-48750D02*
Y-36250D01*
G01X187255D02*
Y-48750D01*
G01Y-42500D02*
X180745D01*
G01X192525Y-48750D02*
X196400Y-36250D01*
X200275Y-48750D01*
G01X198880Y-44375D02*
X193920D01*
G01X205700Y-48750D02*
Y-36250D01*
X209575D01*
X210815Y-36875D01*
X211590Y-37708D01*
X211900Y-39375D01*
X211590Y-41042D01*
X210660Y-42083D01*
X209575Y-42708D01*
X205700D01*
G01X209575D02*
X211900Y-48750D01*
G01X221200Y-36250D02*
Y-48750D01*
G01X217635Y-36250D02*
X224765D01*
G01X233600Y-49167D02*
X233290Y-48958D01*
Y-48542D01*
X233600Y-48333D01*
X233910Y-48542D01*
Y-48958D01*
X233600Y-49167D01*
G01Y-43542D02*
X233290Y-43333D01*
Y-42917D01*
X233600Y-42708D01*
X233910Y-42917D01*
Y-43333D01*
X233600Y-43542D01*
G01X258400Y-36250D02*
Y-48750D01*
G01X254835Y-36250D02*
X261965D01*
G01X270800Y-48750D02*
X269560Y-48542D01*
X268475Y-47709D01*
X267545Y-46458D01*
X266925Y-45000D01*
X266615Y-43333D01*
Y-41667D01*
X266925Y-40000D01*
X267545Y-38542D01*
X268475Y-37292D01*
X269560Y-36458D01*
X270800Y-36250D01*
X272040Y-36458D01*
X273125Y-37292D01*
X274055Y-38542D01*
X274675Y-40000D01*
X274985Y-41667D01*
Y-43333D01*
X274675Y-45000D01*
X274055Y-46458D01*
X273125Y-47709D01*
X272040Y-48542D01*
X270800Y-48750D01*
G01X280100D02*
Y-36250D01*
X283820D01*
X285060Y-36875D01*
X285990Y-38333D01*
X286300Y-40000D01*
X285990Y-41667D01*
X285215Y-42917D01*
X283820Y-43542D01*
X280100D01*
G01X308000Y-36250D02*
Y-48750D01*
G01X305830Y-40417D02*
X310170D01*
G01X320400Y-48750D02*
X319470Y-48542D01*
X318540Y-47709D01*
X317920Y-46250D01*
X317610Y-44583D01*
X317920Y-42917D01*
X318540Y-41458D01*
X319470Y-40625D01*
X320400Y-40417D01*
X321330Y-40625D01*
X322260Y-41458D01*
X322880Y-42917D01*
X323035Y-44583D01*
X322880Y-46250D01*
X322260Y-47709D01*
X321330Y-48542D01*
X320400Y-48750D01*
G01X346440Y-42083D02*
X347060Y-41458D01*
X347525Y-40417D01*
X347835Y-38958D01*
X347525Y-37708D01*
X346905Y-36875D01*
X345820Y-36250D01*
X341635D01*
Y-48750D01*
X346750D01*
X347835Y-47917D01*
X348455Y-46667D01*
X348765Y-45208D01*
X348455Y-43750D01*
X347525Y-42500D01*
X346440Y-42083D01*
X341635D01*
G01X357600Y-48750D02*
X356360Y-48542D01*
X355275Y-47709D01*
X354345Y-46458D01*
X353725Y-45000D01*
X353415Y-43333D01*
Y-41667D01*
X353725Y-40000D01*
X354345Y-38542D01*
X355275Y-37292D01*
X356360Y-36458D01*
X357600Y-36250D01*
X358840Y-36458D01*
X359925Y-37292D01*
X360855Y-38542D01*
X361475Y-40000D01*
X361785Y-41667D01*
Y-43333D01*
X361475Y-45000D01*
X360855Y-46458D01*
X359925Y-47709D01*
X358840Y-48542D01*
X357600Y-48750D01*
G01X370000Y-36250D02*
Y-48750D01*
G01X366435Y-36250D02*
X373565D01*
G01X382400D02*
Y-48750D01*
G01X378835Y-36250D02*
X385965D01*
G01X394800Y-48750D02*
X393560Y-48542D01*
X392475Y-47709D01*
X391545Y-46458D01*
X390925Y-45000D01*
X390615Y-43333D01*
Y-41667D01*
X390925Y-40000D01*
X391545Y-38542D01*
X392475Y-37292D01*
X393560Y-36458D01*
X394800Y-36250D01*
X396040Y-36458D01*
X397125Y-37292D01*
X398055Y-38542D01*
X398675Y-40000D01*
X398985Y-41667D01*
Y-43333D01*
X398675Y-45000D01*
X398055Y-46458D01*
X397125Y-47709D01*
X396040Y-48542D01*
X394800Y-48750D01*
G01X403170D02*
Y-36250D01*
X407200Y-46667D01*
X411230Y-36250D01*
Y-48750D01*
G01X105625Y167900D02*
X157480D01*
G01X124325Y-73750D02*
X128200Y-61250D01*
X132075Y-73750D01*
G01X130680Y-69375D02*
X125720D01*
G01X137500Y-61250D02*
Y-73750D01*
X143700D01*
G01X149900Y-61250D02*
Y-73750D01*
X156100D01*
G01X174390Y-61250D02*
Y-70208D01*
X175010Y-72084D01*
X176250Y-73333D01*
X177800Y-73750D01*
X179350Y-73333D01*
X180590Y-72084D01*
X181210Y-70208D01*
Y-61250D01*
G01X186635Y-73750D02*
Y-61250D01*
X193765Y-73750D01*
Y-61250D01*
G01X200740D02*
X204460D01*
G01X202600D02*
Y-73750D01*
G01X200740D02*
X204460D01*
G01X215000Y-61250D02*
Y-73750D01*
G01X211435Y-61250D02*
X218565D01*
G01X224145Y-72084D02*
X225385Y-73125D01*
X226780Y-73750D01*
X228020D01*
X229260Y-73125D01*
X230190Y-72084D01*
X230655Y-70625D01*
X230345Y-69167D01*
X229570Y-67917D01*
X228175Y-67083D01*
X226315Y-66667D01*
X225230Y-65833D01*
X224765Y-64375D01*
X225075Y-62917D01*
X225850Y-61875D01*
X226935Y-61250D01*
X228020D01*
X229105Y-61667D01*
X230035Y-62708D01*
G01X248325Y-73750D02*
X252200Y-61250D01*
X256075Y-73750D01*
G01X254680Y-69375D02*
X249720D01*
G01X261500Y-73750D02*
Y-61250D01*
X265375D01*
X266615Y-61875D01*
X267390Y-62708D01*
X267700Y-64375D01*
X267390Y-66042D01*
X266460Y-67083D01*
X265375Y-67708D01*
X261500D01*
G01X265375D02*
X267700Y-73750D01*
G01X280100D02*
X273900D01*
Y-61250D01*
X280100D01*
G01X277620Y-67292D02*
X273900D01*
G01X299940Y-61250D02*
X303660D01*
G01X301800D02*
Y-73750D01*
G01X299940D02*
X303660D01*
G01X310635D02*
Y-61250D01*
X317765Y-73750D01*
Y-61250D01*
G01X334970Y-73750D02*
Y-61250D01*
X339000Y-71667D01*
X343030Y-61250D01*
Y-73750D01*
G01X349540Y-61250D02*
X353260D01*
G01X351400D02*
Y-73750D01*
G01X349540D02*
X353260D01*
G01X360700Y-61250D02*
Y-73750D01*
X366900D01*
G01X372945Y-72084D02*
X374185Y-73125D01*
X375580Y-73750D01*
X376820D01*
X378060Y-73125D01*
X378990Y-72084D01*
X379455Y-70625D01*
X379145Y-69167D01*
X378370Y-67917D01*
X376975Y-67083D01*
X375115Y-66667D01*
X374030Y-65833D01*
X373565Y-64375D01*
X373875Y-62917D01*
X374650Y-61875D01*
X375735Y-61250D01*
X376820D01*
X377905Y-61667D01*
X378835Y-62708D01*
G01X142480Y165400D02*
X157480Y167900D01*
X142480Y170400D01*
Y165400D01*
G01X170050Y-123750D02*
Y-111250D01*
X168190Y-113750D01*
G01Y-123750D02*
X171910D01*
G01X179040Y-121875D02*
X179970Y-122917D01*
X181055Y-123542D01*
X182450Y-123750D01*
X183845Y-123333D01*
X184930Y-122500D01*
X185705Y-121042D01*
X185860Y-119375D01*
X185550Y-117708D01*
X184775Y-116667D01*
X183690Y-115833D01*
X182605Y-115625D01*
X181520Y-115833D01*
X180125Y-116667D01*
X180590Y-111250D01*
X184775D01*
G01X194850Y-124167D02*
X194540Y-123958D01*
Y-123542D01*
X194850Y-123333D01*
X195160Y-123542D01*
Y-123958D01*
X194850Y-124167D01*
G01X206940Y-123750D02*
X207250Y-121042D01*
X207715Y-118750D01*
X208335Y-116667D01*
X209110Y-114375D01*
X210350Y-111250D01*
X204150D01*
G01X216240Y-121875D02*
X217170Y-122917D01*
X218255Y-123542D01*
X219650Y-123750D01*
X221045Y-123333D01*
X222130Y-122500D01*
X222905Y-121042D01*
X223060Y-119375D01*
X222750Y-117708D01*
X221975Y-116667D01*
X220890Y-115833D01*
X219805Y-115625D01*
X218720Y-115833D01*
X217325Y-116667D01*
X217790Y-111250D01*
X221975D01*
G01X157480Y167480D02*
Y177900D01*
G01X295600Y-80000D02*
Y-130000D01*
G01X325050Y-123750D02*
Y-111250D01*
X328770D01*
X330010Y-111875D01*
X330940Y-113333D01*
X331250Y-115000D01*
X330940Y-116667D01*
X330165Y-117917D01*
X328770Y-118542D01*
X325050D01*
G01X337450Y-111250D02*
Y-123750D01*
X343650D01*
G01X349075D02*
X352950Y-111250D01*
X356825Y-123750D01*
G01X355430Y-119375D02*
X350470D01*
G01X365350Y-111250D02*
Y-123750D01*
G01X361785Y-111250D02*
X368915D01*
G01X380850Y-123750D02*
X374650D01*
Y-111250D01*
X380850D01*
G01X378370Y-117292D02*
X374650D01*
G01X386740Y-123750D02*
Y-111250D01*
X389840D01*
X391080Y-111875D01*
X392010Y-112708D01*
X392785Y-113958D01*
X393405Y-115417D01*
X393560Y-117500D01*
X393405Y-119583D01*
X392785Y-121042D01*
X392010Y-122292D01*
X391080Y-123125D01*
X389840Y-123750D01*
X386740D01*
G01X325050Y-98750D02*
Y-86250D01*
X328770D01*
X330010Y-86875D01*
X330940Y-88333D01*
X331250Y-90000D01*
X330940Y-91667D01*
X330165Y-92917D01*
X328770Y-93542D01*
X325050D01*
G01X337450Y-86250D02*
Y-98750D01*
X343650D01*
G01X349075D02*
X352950Y-86250D01*
X356825Y-98750D01*
G01X355430Y-94375D02*
X350470D01*
G01X365350Y-86250D02*
Y-98750D01*
G01X361785Y-86250D02*
X368915D01*
G01X380850Y-98750D02*
X374650D01*
Y-86250D01*
X380850D01*
G01X378370Y-92292D02*
X374650D01*
G01X386740Y-98750D02*
Y-86250D01*
X389840D01*
X391080Y-86875D01*
X392010Y-87708D01*
X392785Y-88958D01*
X393405Y-90417D01*
X393560Y-92500D01*
X393405Y-94583D01*
X392785Y-96042D01*
X392010Y-97292D01*
X391080Y-98125D01*
X389840Y-98750D01*
X386740D01*
G01X422700Y-80000D02*
Y-130000D01*
G01X449050Y-98750D02*
X447810Y-98542D01*
X446725Y-97709D01*
X445795Y-96458D01*
X445175Y-95000D01*
X444865Y-93333D01*
Y-91667D01*
X445175Y-90000D01*
X445795Y-88542D01*
X446725Y-87292D01*
X447810Y-86458D01*
X449050Y-86250D01*
X450290Y-86458D01*
X451375Y-87292D01*
X452305Y-88542D01*
X452925Y-90000D01*
X453235Y-91667D01*
Y-93333D01*
X452925Y-95000D01*
X452305Y-96458D01*
X451375Y-97709D01*
X450290Y-98542D01*
X449050Y-98750D01*
G01X450290Y-95417D02*
X452150Y-98750D01*
G01X461450Y-86250D02*
Y-98750D01*
G01X457885Y-86250D02*
X465015D01*
G01X473850Y-98750D02*
Y-93125D01*
X470750Y-86250D01*
G01X476950D02*
X473850Y-93125D01*
G01X461450Y-123750D02*
X462535Y-123542D01*
X463775Y-122917D01*
X464550Y-121875D01*
X464860Y-120417D01*
X464550Y-118959D01*
X463620Y-117708D01*
X462225Y-117083D01*
X460675D01*
X459745Y-116667D01*
X458970Y-115625D01*
X458660Y-114167D01*
X459125Y-112708D01*
X460210Y-111667D01*
X461450Y-111250D01*
X462690Y-111667D01*
X463775Y-112708D01*
X464240Y-114167D01*
X463930Y-115625D01*
X463155Y-116667D01*
X462225Y-117083D01*
X460675D01*
X459280Y-117708D01*
X458350Y-118959D01*
X458040Y-120417D01*
X458350Y-121875D01*
X459125Y-122917D01*
X460365Y-123542D01*
X461450Y-123750D01*
M02*
