G04 ================== begin FILE IDENTIFICATION RECORD ==================*
G04 Layout Name:  C:/orcadnou/allegro/ULTIMUL_PCBEDIT.brd*
G04 Film Name:    SPTOP*
G04 File Format:  Gerber RS274X*
G04 File Origin:  Cadence Allegro 17.2-S025*
G04 Origin Date:  Fri Dec 13 18:38:33 2024*
G04 *
G04 Layer:  VIA CLASS/PASTEMASK_TOP*
G04 Layer:  PIN/PASTEMASK_TOP*
G04 Layer:  DRC ERROR CLASS/PASTEMASK_TOP*
G04 *
G04 Offset:    (0.00 0.00)*
G04 Mirror:    No*
G04 Mode:      Positive*
G04 Rotation:  0*
G04 FullContactRelief:  No*
G04 UndefLineWidth:     0.30*
G04 ================== end FILE IDENTIFICATION RECORD ====================*
%FSLAX25Y25*MOIN*%
%IR0*IPPOS*OFA0.00000B0.00000*MIA0B0*SFA1.00000B1.00000*%
%ADD15R,.045X.045*%
%ADD12R,.05087X.10807*%
%ADD10R,.10807X.05087*%
%ADD17R,.031X.045*%
%ADD13R,.045X.031*%
%ADD11R,.094X.054*%
%ADD16R,.054X.094*%
%ADD14R,.0684X.0404*%
%LPD*%
G75*
G54D10*
X32800Y23400D03*
X143200Y84500D03*
G54D11*
X15000Y41000D03*
Y54000D03*
X142000Y99700D03*
Y112700D03*
G54D12*
X12500Y70000D03*
G54D13*
X23000Y85000D03*
Y92700D03*
X15000Y88800D03*
X22200Y112800D03*
Y120500D03*
X14200Y116600D03*
X43000Y82500D03*
Y90200D03*
X35000Y86300D03*
X42000Y112900D03*
Y120600D03*
X34000Y116700D03*
X56500Y128500D03*
X85100Y48900D03*
Y56600D03*
X77100Y52700D03*
X64500Y124700D03*
Y132400D03*
X120000Y87200D03*
X112000Y91000D03*
X118500Y112500D03*
Y120200D03*
X110500Y116300D03*
X120000Y94900D03*
G54D14*
X16600Y143900D03*
Y136000D03*
G54D15*
X45000Y37500D03*
X53400D03*
X59700Y80600D03*
X57200Y109400D03*
X58400Y94300D03*
X40700Y144100D03*
X49100D03*
X65000Y35000D03*
X73400D03*
X88200Y93000D03*
X89800Y74800D03*
X68100Y80600D03*
X88200Y109900D03*
X65600Y109400D03*
X66800Y94300D03*
X122500Y32500D03*
X96600Y93000D03*
X98200Y74800D03*
X96600Y109900D03*
X130900Y32500D03*
X143700Y40900D03*
Y49300D03*
X143200Y63900D03*
Y72300D03*
G54D16*
X91000Y25000D03*
X83900Y133500D03*
X104000Y25000D03*
X113500Y142500D03*
X96900Y133500D03*
X126500Y142500D03*
G54D17*
X106700Y56500D03*
X99000D03*
X102900Y48500D03*
M02*
