G04 ================== begin FILE IDENTIFICATION RECORD ==================*
G04 Layout Name:  C:/orcadnou/allegro/ULTIMUL_PCBEDIT.brd*
G04 Film Name:    SSTOP*
G04 File Format:  Gerber RS274X*
G04 File Origin:  Cadence Allegro 17.2-S025*
G04 Origin Date:  Fri Dec 13 14:30:19 2024*
G04 *
G04 Layer:  REF DES/SILKSCREEN_TOP*
G04 Layer:  PACKAGE GEOMETRY/SILKSCREEN_TOP*
G04 Layer:  BOARD GEOMETRY/SILKSCREEN_TOP*
G04 *
G04 Offset:    (0.00 0.00)*
G04 Mirror:    No*
G04 Mode:      Positive*
G04 Rotation:  0*
G04 FullContactRelief:  No*
G04 UndefLineWidth:     0.30*
G04 ================== end FILE IDENTIFICATION RECORD ====================*
%FSLAX25Y25*MOIN*%
%IR0*IPPOS*OFA0.00000B0.00000*MIA0B0*SFA1.00000B1.00000*%
%ADD10C,.002*%
%ADD11C,.0003*%
%ADD12C,.006*%
G75*
%LPD*%
G75*
G54D10*
G01X26200Y27900D02*
X39800D01*
Y18900D01*
X25800D01*
Y27900D01*
X26200D01*
G01X21800Y82500D02*
X16200D01*
G01X8400Y77000D02*
X17000D01*
Y63100D01*
X8000D01*
Y77000D01*
X8400D01*
G01X21000Y110300D02*
X15400D01*
G01X21800Y95200D02*
X16200D01*
G01X21000Y123000D02*
X15400D01*
G01X41800Y80000D02*
X36200D01*
G01X40800Y110400D02*
X35200D01*
G01X41800Y92700D02*
X36200D01*
G01X63300Y134900D02*
X57800D01*
G01X63300Y122200D02*
X57700D01*
G01X40800Y123100D02*
X35200D01*
G01X83900Y46400D02*
X78300D01*
G01X83800Y59100D02*
X78300D01*
G01X96500Y55200D02*
Y49700D01*
G01X109200Y55300D02*
Y49700D01*
G01X118800Y84700D02*
X113200D01*
G01X117300Y110000D02*
X111700D01*
G01X118800Y97400D02*
X113200D01*
G01X117300Y122700D02*
X111700D01*
G01X136200Y89000D02*
X150200D01*
Y80000D01*
X136200D01*
Y89000D01*
G54D11*
G01X18245Y12213D02*
X18552Y11955D01*
X18897Y11800D01*
X19203D01*
X19510Y11955D01*
X19740Y12213D01*
X19855Y12575D01*
X19778Y12937D01*
X19587Y13247D01*
X19242Y13453D01*
X18782Y13557D01*
X18513Y13763D01*
X18398Y14125D01*
X18475Y14487D01*
X18667Y14745D01*
X18935Y14900D01*
X19203D01*
X19472Y14797D01*
X19702Y14538D01*
G01X21192Y11800D02*
X22150Y14900D01*
X23108Y11800D01*
G01X22763Y12885D02*
X21537D01*
G01X24483Y11800D02*
Y14900D01*
X25442D01*
X25748Y14745D01*
X25940Y14538D01*
X26017Y14125D01*
X25940Y13712D01*
X25710Y13453D01*
X25442Y13298D01*
X24483D01*
G01X25442D02*
X26017Y11800D01*
G01X27392D02*
X28350Y14900D01*
X29308Y11800D01*
G01X28963Y12885D02*
X27737D01*
G01X30683Y11800D02*
Y14900D01*
X31642D01*
X31948Y14745D01*
X32140Y14538D01*
X32217Y14125D01*
X32140Y13712D01*
X31910Y13453D01*
X31642Y13298D01*
X30683D01*
G01X31642D02*
X32217Y11800D01*
G01X33707Y14900D02*
Y12678D01*
X33860Y12213D01*
X34167Y11903D01*
X34550Y11800D01*
X34933Y11903D01*
X35240Y12213D01*
X35393Y12678D01*
Y14900D01*
G01X41057Y13453D02*
X41210Y13608D01*
X41325Y13867D01*
X41402Y14228D01*
X41325Y14538D01*
X41172Y14745D01*
X40903Y14900D01*
X39868D01*
Y11800D01*
X41133D01*
X41402Y12007D01*
X41555Y12317D01*
X41632Y12678D01*
X41555Y13040D01*
X41325Y13350D01*
X41057Y13453D01*
X39868D01*
G01X43390Y14900D02*
X44310D01*
G01X43850D02*
Y11800D01*
G01X43390D02*
X44310D01*
G01X45992D02*
X46950Y14900D01*
X47908Y11800D01*
G01X47563Y12885D02*
X46337D01*
G01X49168Y11800D02*
Y14900D01*
X50932Y11800D01*
Y14900D01*
G01X53993Y14642D02*
X53763Y14797D01*
X53495Y14900D01*
X53188D01*
X52843Y14745D01*
X52575Y14487D01*
X52383Y14177D01*
X52230Y13660D01*
X52192Y13195D01*
X52268Y12730D01*
X52383Y12420D01*
X52613Y12110D01*
X52882Y11903D01*
X53150Y11800D01*
X53418D01*
X53687Y11903D01*
X53917Y12058D01*
X54108Y12265D01*
G01X55292Y11800D02*
X56250Y14900D01*
X57208Y11800D01*
G01X56863Y12885D02*
X55637D01*
G01X58852Y12833D02*
X59848D01*
G01X61453Y11800D02*
Y14900D01*
X62450Y12317D01*
X63447Y14900D01*
Y11800D01*
G01X64592D02*
X65550Y14900D01*
X66508Y11800D01*
G01X66163Y12885D02*
X64937D01*
G01X67883Y11800D02*
Y14900D01*
X68842D01*
X69148Y14745D01*
X69340Y14538D01*
X69417Y14125D01*
X69340Y13712D01*
X69110Y13453D01*
X68842Y13298D01*
X67883D01*
G01X68842D02*
X69417Y11800D01*
G01X71290Y14900D02*
X72210D01*
G01X71750D02*
Y11800D01*
G01X71290D02*
X72210D01*
G01X73892D02*
X74850Y14900D01*
X75808Y11800D01*
G01X75463Y12885D02*
X74237D01*
G01X13910Y7600D02*
Y10700D01*
X12492Y8478D01*
X14408D01*
G01X15707Y8220D02*
X15937Y7858D01*
X16243Y7652D01*
X16588Y7600D01*
X16895Y7652D01*
X17202Y7910D01*
X17393Y8220D01*
X17432Y8530D01*
X17355Y8892D01*
X17087Y9150D01*
X16818Y9253D01*
X16473D01*
G01X16818D02*
X17048Y9408D01*
X17240Y9667D01*
X17317Y9977D01*
X17240Y10287D01*
X17048Y10545D01*
X16703Y10700D01*
X16358Y10648D01*
X16013Y10442D01*
G01X19650Y7600D02*
Y10700D01*
X19190Y10080D01*
G01Y7600D02*
X20110D01*
G01X23057Y9253D02*
X23210Y9408D01*
X23325Y9667D01*
X23402Y10028D01*
X23325Y10338D01*
X23172Y10545D01*
X22903Y10700D01*
X21868D01*
Y7600D01*
X23133D01*
X23402Y7807D01*
X23555Y8117D01*
X23632Y8478D01*
X23555Y8840D01*
X23325Y9150D01*
X23057Y9253D01*
X21868D01*
G01X28873Y7032D02*
X29027Y7703D01*
G01X34383Y7600D02*
Y10700D01*
X35303D01*
X35610Y10545D01*
X35840Y10183D01*
X35917Y9770D01*
X35840Y9357D01*
X35648Y9047D01*
X35303Y8892D01*
X34383D01*
G01X38250Y7600D02*
Y10700D01*
X37790Y10080D01*
G01Y7600D02*
X38710D01*
G01X40507D02*
Y10700D01*
X41273D01*
X41580Y10545D01*
X41810Y10338D01*
X42002Y10028D01*
X42155Y9667D01*
X42193Y9150D01*
X42155Y8633D01*
X42002Y8272D01*
X41810Y7962D01*
X41580Y7755D01*
X41273Y7600D01*
X40507D01*
G01X45293Y10442D02*
X45063Y10597D01*
X44795Y10700D01*
X44488D01*
X44143Y10545D01*
X43875Y10287D01*
X43683Y9977D01*
X43530Y9460D01*
X43492Y8995D01*
X43568Y8530D01*
X43683Y8220D01*
X43913Y7910D01*
X44182Y7703D01*
X44450Y7600D01*
X44718D01*
X44987Y7703D01*
X45217Y7858D01*
X45408Y8065D01*
G01X48317Y7600D02*
X46783D01*
Y10700D01*
X48317D01*
G01X47703Y9202D02*
X46783D01*
G01X53022Y10183D02*
X53252Y10493D01*
X53520Y10648D01*
X53827Y10700D01*
X54210Y10597D01*
X54478Y10338D01*
X54555Y10028D01*
X54517Y9718D01*
X54363Y9460D01*
X53597Y8943D01*
X53252Y8582D01*
X53022Y8065D01*
X52945Y7600D01*
X54555D01*
G01X56850Y10700D02*
X56543Y10597D01*
X56313Y10338D01*
X56160Y10028D01*
X56045Y9615D01*
X56007Y9150D01*
X56045Y8685D01*
X56160Y8272D01*
X56313Y7962D01*
X56543Y7703D01*
X56850Y7600D01*
X57157Y7703D01*
X57387Y7962D01*
X57540Y8272D01*
X57655Y8685D01*
X57693Y9150D01*
X57655Y9615D01*
X57540Y10028D01*
X57387Y10338D01*
X57157Y10597D01*
X56850Y10700D01*
G01X59222Y10183D02*
X59452Y10493D01*
X59720Y10648D01*
X60027Y10700D01*
X60410Y10597D01*
X60678Y10338D01*
X60755Y10028D01*
X60717Y9718D01*
X60563Y9460D01*
X59797Y8943D01*
X59452Y8582D01*
X59222Y8065D01*
X59145Y7600D01*
X60755D01*
G01X63510D02*
Y10700D01*
X62092Y8478D01*
X64008D01*
G01X65652Y8633D02*
X66648D01*
G01X68522Y10183D02*
X68752Y10493D01*
X69020Y10648D01*
X69327Y10700D01*
X69710Y10597D01*
X69978Y10338D01*
X70055Y10028D01*
X70017Y9718D01*
X69863Y9460D01*
X69097Y8943D01*
X68752Y8582D01*
X68522Y8065D01*
X68445Y7600D01*
X70055D01*
G01X72350Y10700D02*
X72043Y10597D01*
X71813Y10338D01*
X71660Y10028D01*
X71545Y9615D01*
X71507Y9150D01*
X71545Y8685D01*
X71660Y8272D01*
X71813Y7962D01*
X72043Y7703D01*
X72350Y7600D01*
X72657Y7703D01*
X72887Y7962D01*
X73040Y8272D01*
X73155Y8685D01*
X73193Y9150D01*
X73155Y9615D01*
X73040Y10028D01*
X72887Y10338D01*
X72657Y10597D01*
X72350Y10700D01*
G01X74722Y10183D02*
X74952Y10493D01*
X75220Y10648D01*
X75527Y10700D01*
X75910Y10597D01*
X76178Y10338D01*
X76255Y10028D01*
X76217Y9718D01*
X76063Y9460D01*
X75297Y8943D01*
X74952Y8582D01*
X74722Y8065D01*
X74645Y7600D01*
X76255D01*
G01X77707Y8065D02*
X77937Y7807D01*
X78205Y7652D01*
X78550Y7600D01*
X78895Y7703D01*
X79163Y7910D01*
X79355Y8272D01*
X79393Y8685D01*
X79317Y9098D01*
X79125Y9357D01*
X78857Y9563D01*
X78588Y9615D01*
X78320Y9563D01*
X77975Y9357D01*
X78090Y10700D01*
X79125D01*
G01X6583Y31120D02*
X6775Y30810D01*
X7005Y30603D01*
X7273Y30500D01*
X7580Y30603D01*
X7810Y30810D01*
X8040Y31120D01*
X8117Y31533D01*
Y33600D01*
G01X10373Y30500D02*
X10450Y31172D01*
X10565Y31740D01*
X10718Y32257D01*
X10910Y32825D01*
X11217Y33600D01*
X9683D01*
G01X6500Y42000D02*
Y35500D01*
X6600D01*
X23500D01*
Y42000D01*
G01Y53000D02*
Y59500D01*
X6500D01*
Y58000D01*
Y53000D01*
G01X9583Y78520D02*
X9775Y78210D01*
X10005Y78003D01*
X10273Y77900D01*
X10580Y78003D01*
X10810Y78210D01*
X11040Y78520D01*
X11117Y78933D01*
Y81000D01*
G01X13910Y77900D02*
Y81000D01*
X12492Y78778D01*
X14408D01*
G01X18050Y96800D02*
X17743Y96852D01*
X17475Y97058D01*
X17245Y97368D01*
X17092Y97730D01*
X17015Y98143D01*
Y98557D01*
X17092Y98970D01*
X17245Y99332D01*
X17475Y99642D01*
X17743Y99848D01*
X18050Y99900D01*
X18357Y99848D01*
X18625Y99642D01*
X18855Y99332D01*
X19008Y98970D01*
X19085Y98557D01*
Y98143D01*
X19008Y97730D01*
X18855Y97368D01*
X18625Y97058D01*
X18357Y96852D01*
X18050Y96800D01*
G01X18357Y97627D02*
X18817Y96800D01*
G01X21073D02*
X21150Y97472D01*
X21265Y98040D01*
X21418Y98557D01*
X21610Y99125D01*
X21917Y99900D01*
X20383D01*
G01X10650Y122100D02*
X10343Y122152D01*
X10075Y122358D01*
X9845Y122668D01*
X9692Y123030D01*
X9615Y123443D01*
Y123857D01*
X9692Y124270D01*
X9845Y124632D01*
X10075Y124942D01*
X10343Y125148D01*
X10650Y125200D01*
X10957Y125148D01*
X11225Y124942D01*
X11455Y124632D01*
X11608Y124270D01*
X11685Y123857D01*
Y123443D01*
X11608Y123030D01*
X11455Y122668D01*
X11225Y122358D01*
X10957Y122152D01*
X10650Y122100D01*
G01X10957Y122927D02*
X11417Y122100D01*
G01X13022Y124683D02*
X13252Y124993D01*
X13520Y125148D01*
X13827Y125200D01*
X14210Y125097D01*
X14478Y124838D01*
X14555Y124528D01*
X14517Y124218D01*
X14363Y123960D01*
X13597Y123443D01*
X13252Y123082D01*
X13022Y122565D01*
X12945Y122100D01*
X14555D01*
G01X14807Y150000D02*
Y153100D01*
X15573D01*
X15880Y152945D01*
X16110Y152738D01*
X16302Y152428D01*
X16455Y152067D01*
X16493Y151550D01*
X16455Y151033D01*
X16302Y150672D01*
X16110Y150362D01*
X15880Y150155D01*
X15573Y150000D01*
X14807D01*
G01X18750D02*
Y153100D01*
X18290Y152480D01*
G01Y150000D02*
X19210D01*
G01X30683Y30020D02*
X30875Y29710D01*
X31105Y29503D01*
X31373Y29400D01*
X31680Y29503D01*
X31910Y29710D01*
X32140Y30020D01*
X32217Y30433D01*
Y32500D01*
G01X33707Y29865D02*
X33937Y29607D01*
X34205Y29452D01*
X34550Y29400D01*
X34895Y29503D01*
X35163Y29710D01*
X35355Y30072D01*
X35393Y30485D01*
X35317Y30898D01*
X35125Y31157D01*
X34857Y31363D01*
X34588Y31415D01*
X34320Y31363D01*
X33975Y31157D01*
X34090Y32500D01*
X35125D01*
G01X44383Y43500D02*
Y46600D01*
X45342D01*
X45648Y46445D01*
X45840Y46238D01*
X45917Y45825D01*
X45840Y45412D01*
X45610Y45153D01*
X45342Y44998D01*
X44383D01*
G01X45342D02*
X45917Y43500D01*
G01X47522Y44792D02*
X47790Y45153D01*
X48020Y45360D01*
X48327Y45463D01*
X48595Y45360D01*
X48787Y45153D01*
X48940Y44843D01*
X48978Y44482D01*
X48940Y44172D01*
X48787Y43862D01*
X48557Y43603D01*
X48288Y43500D01*
X47982Y43603D01*
X47713Y43913D01*
X47560Y44378D01*
X47522Y44895D01*
X47598Y45567D01*
X47713Y45928D01*
X47905Y46290D01*
X48173Y46548D01*
X48442Y46600D01*
X48710Y46497D01*
X48902Y46238D01*
G01X35550Y74600D02*
X35243Y74652D01*
X34975Y74858D01*
X34745Y75168D01*
X34592Y75530D01*
X34515Y75943D01*
Y76357D01*
X34592Y76770D01*
X34745Y77132D01*
X34975Y77442D01*
X35243Y77648D01*
X35550Y77700D01*
X35857Y77648D01*
X36125Y77442D01*
X36355Y77132D01*
X36508Y76770D01*
X36585Y76357D01*
Y75943D01*
X36508Y75530D01*
X36355Y75168D01*
X36125Y74858D01*
X35857Y74652D01*
X35550Y74600D01*
G01X35857Y75427D02*
X36317Y74600D01*
G01X38650D02*
X38918Y74652D01*
X39225Y74807D01*
X39417Y75065D01*
X39493Y75427D01*
X39417Y75788D01*
X39187Y76098D01*
X38842Y76253D01*
X38458D01*
X38228Y76357D01*
X38037Y76615D01*
X37960Y76977D01*
X38075Y77338D01*
X38343Y77597D01*
X38650Y77700D01*
X38957Y77597D01*
X39225Y77338D01*
X39340Y76977D01*
X39263Y76615D01*
X39072Y76357D01*
X38842Y76253D01*
X38458D01*
X38113Y76098D01*
X37883Y75788D01*
X37807Y75427D01*
X37883Y75065D01*
X38075Y74807D01*
X38382Y74652D01*
X38650Y74600D01*
G01X61193Y102042D02*
X60963Y102197D01*
X60695Y102300D01*
X60388D01*
X60043Y102145D01*
X59775Y101887D01*
X59583Y101577D01*
X59430Y101060D01*
X59392Y100595D01*
X59468Y100130D01*
X59583Y99820D01*
X59813Y99510D01*
X60082Y99303D01*
X60350Y99200D01*
X60618D01*
X60887Y99303D01*
X61117Y99458D01*
X61308Y99665D01*
G01X62607Y99820D02*
X62837Y99458D01*
X63143Y99252D01*
X63488Y99200D01*
X63795Y99252D01*
X64102Y99510D01*
X64293Y99820D01*
X64332Y100130D01*
X64255Y100492D01*
X63987Y100750D01*
X63718Y100853D01*
X63373D01*
G01X63718D02*
X63948Y101008D01*
X64140Y101267D01*
X64217Y101577D01*
X64140Y101887D01*
X63948Y102145D01*
X63603Y102300D01*
X63258Y102248D01*
X62913Y102042D01*
G01X47450Y117600D02*
X47143Y117652D01*
X46875Y117858D01*
X46645Y118168D01*
X46492Y118530D01*
X46415Y118943D01*
Y119357D01*
X46492Y119770D01*
X46645Y120132D01*
X46875Y120442D01*
X47143Y120648D01*
X47450Y120700D01*
X47757Y120648D01*
X48025Y120442D01*
X48255Y120132D01*
X48408Y119770D01*
X48485Y119357D01*
Y118943D01*
X48408Y118530D01*
X48255Y118168D01*
X48025Y117858D01*
X47757Y117652D01*
X47450Y117600D01*
G01X47757Y118427D02*
X48217Y117600D01*
G01X49707Y118220D02*
X49937Y117858D01*
X50243Y117652D01*
X50588Y117600D01*
X50895Y117652D01*
X51202Y117910D01*
X51393Y118220D01*
X51432Y118530D01*
X51355Y118892D01*
X51087Y119150D01*
X50818Y119253D01*
X50473D01*
G01X50818D02*
X51048Y119408D01*
X51240Y119667D01*
X51317Y119977D01*
X51240Y120287D01*
X51048Y120545D01*
X50703Y120700D01*
X50358Y120648D01*
X50013Y120442D01*
G01X39983Y149400D02*
Y152500D01*
X40942D01*
X41248Y152345D01*
X41440Y152138D01*
X41517Y151725D01*
X41440Y151312D01*
X41210Y151053D01*
X40942Y150898D01*
X39983D01*
G01X40942D02*
X41517Y149400D01*
G01X43850D02*
Y152500D01*
X43390Y151880D01*
G01Y149400D02*
X44310D01*
G01X92000Y33500D02*
X85500D01*
Y33400D01*
Y16500D01*
X92000D01*
G01X63483Y39900D02*
Y43000D01*
X64442D01*
X64748Y42845D01*
X64940Y42638D01*
X65017Y42225D01*
X64940Y41812D01*
X64710Y41553D01*
X64442Y41398D01*
X63483D01*
G01X64442D02*
X65017Y39900D01*
G01X67350D02*
X67618Y39952D01*
X67925Y40107D01*
X68117Y40365D01*
X68193Y40727D01*
X68117Y41088D01*
X67887Y41398D01*
X67542Y41553D01*
X67158D01*
X66928Y41657D01*
X66737Y41915D01*
X66660Y42277D01*
X66775Y42638D01*
X67043Y42897D01*
X67350Y43000D01*
X67657Y42897D01*
X67925Y42638D01*
X68040Y42277D01*
X67963Y41915D01*
X67772Y41657D01*
X67542Y41553D01*
X67158D01*
X66813Y41398D01*
X66583Y41088D01*
X66507Y40727D01*
X66583Y40365D01*
X66775Y40107D01*
X67082Y39952D01*
X67350Y39900D01*
G01X80150Y60400D02*
X79843Y60452D01*
X79575Y60658D01*
X79345Y60968D01*
X79192Y61330D01*
X79115Y61743D01*
Y62157D01*
X79192Y62570D01*
X79345Y62932D01*
X79575Y63242D01*
X79843Y63448D01*
X80150Y63500D01*
X80457Y63448D01*
X80725Y63242D01*
X80955Y62932D01*
X81108Y62570D01*
X81185Y62157D01*
Y61743D01*
X81108Y61330D01*
X80955Y60968D01*
X80725Y60658D01*
X80457Y60452D01*
X80150Y60400D01*
G01X80457Y61227D02*
X80917Y60400D01*
G01X83710D02*
Y63500D01*
X82292Y61278D01*
X84208D01*
G01X62093Y88542D02*
X61863Y88697D01*
X61595Y88800D01*
X61288D01*
X60943Y88645D01*
X60675Y88387D01*
X60483Y88077D01*
X60330Y87560D01*
X60292Y87095D01*
X60368Y86630D01*
X60483Y86320D01*
X60713Y86010D01*
X60982Y85803D01*
X61250Y85700D01*
X61518D01*
X61787Y85803D01*
X62017Y85958D01*
X62208Y86165D01*
G01X64810Y85700D02*
Y88800D01*
X63392Y86578D01*
X65308D01*
G01X71393Y117042D02*
X71163Y117197D01*
X70895Y117300D01*
X70588D01*
X70243Y117145D01*
X69975Y116887D01*
X69783Y116577D01*
X69630Y116060D01*
X69592Y115595D01*
X69668Y115130D01*
X69783Y114820D01*
X70013Y114510D01*
X70282Y114303D01*
X70550Y114200D01*
X70818D01*
X71087Y114303D01*
X71317Y114458D01*
X71508Y114665D01*
G01X72922Y116783D02*
X73152Y117093D01*
X73420Y117248D01*
X73727Y117300D01*
X74110Y117197D01*
X74378Y116938D01*
X74455Y116628D01*
X74417Y116318D01*
X74263Y116060D01*
X73497Y115543D01*
X73152Y115182D01*
X72922Y114665D01*
X72845Y114200D01*
X74455D01*
G01X87483Y144120D02*
X87675Y143810D01*
X87905Y143603D01*
X88173Y143500D01*
X88480Y143603D01*
X88710Y143810D01*
X88940Y144120D01*
X89017Y144533D01*
Y146600D01*
G01X90622Y144792D02*
X90890Y145153D01*
X91120Y145360D01*
X91427Y145463D01*
X91695Y145360D01*
X91887Y145153D01*
X92040Y144843D01*
X92078Y144482D01*
X92040Y144172D01*
X91887Y143862D01*
X91657Y143603D01*
X91388Y143500D01*
X91082Y143603D01*
X90813Y143913D01*
X90660Y144378D01*
X90622Y144895D01*
X90698Y145567D01*
X90813Y145928D01*
X91005Y146290D01*
X91273Y146548D01*
X91542Y146600D01*
X91810Y146497D01*
X92002Y146238D01*
G01X84900Y142000D02*
X78400D01*
Y141900D01*
Y125000D01*
X84900D01*
G01X70650Y128500D02*
X70343Y128552D01*
X70075Y128758D01*
X69845Y129068D01*
X69692Y129430D01*
X69615Y129843D01*
Y130257D01*
X69692Y130670D01*
X69845Y131032D01*
X70075Y131342D01*
X70343Y131548D01*
X70650Y131600D01*
X70957Y131548D01*
X71225Y131342D01*
X71455Y131032D01*
X71608Y130670D01*
X71685Y130257D01*
Y129843D01*
X71608Y129430D01*
X71455Y129068D01*
X71225Y128758D01*
X70957Y128552D01*
X70650Y128500D01*
G01X70957Y129327D02*
X71417Y128500D01*
G01X73022Y129792D02*
X73290Y130153D01*
X73520Y130360D01*
X73827Y130463D01*
X74095Y130360D01*
X74287Y130153D01*
X74440Y129843D01*
X74478Y129482D01*
X74440Y129172D01*
X74287Y128862D01*
X74057Y128603D01*
X73788Y128500D01*
X73482Y128603D01*
X73213Y128913D01*
X73060Y129378D01*
X73022Y129895D01*
X73098Y130567D01*
X73213Y130928D01*
X73405Y131290D01*
X73673Y131548D01*
X73942Y131600D01*
X74210Y131497D01*
X74402Y131238D01*
G01X103000Y16500D02*
X109500D01*
Y33500D01*
X108000D01*
X103000D01*
G01X96183Y36520D02*
X96375Y36210D01*
X96605Y36003D01*
X96873Y35900D01*
X97180Y36003D01*
X97410Y36210D01*
X97640Y36520D01*
X97717Y36933D01*
Y39000D01*
G01X100050Y35900D02*
X100318Y35952D01*
X100625Y36107D01*
X100817Y36365D01*
X100893Y36727D01*
X100817Y37088D01*
X100587Y37398D01*
X100242Y37553D01*
X99858D01*
X99628Y37657D01*
X99437Y37915D01*
X99360Y38277D01*
X99475Y38638D01*
X99743Y38897D01*
X100050Y39000D01*
X100357Y38897D01*
X100625Y38638D01*
X100740Y38277D01*
X100663Y37915D01*
X100472Y37657D01*
X100242Y37553D01*
X99858D01*
X99513Y37398D01*
X99283Y37088D01*
X99207Y36727D01*
X99283Y36365D01*
X99475Y36107D01*
X99782Y35952D01*
X100050Y35900D01*
G01X101583Y80000D02*
Y83100D01*
X102542D01*
X102848Y82945D01*
X103040Y82738D01*
X103117Y82325D01*
X103040Y81912D01*
X102810Y81653D01*
X102542Y81498D01*
X101583D01*
G01X102542D02*
X103117Y80000D01*
G01X104722Y82583D02*
X104952Y82893D01*
X105220Y83048D01*
X105527Y83100D01*
X105910Y82997D01*
X106178Y82738D01*
X106255Y82428D01*
X106217Y82118D01*
X106063Y81860D01*
X105297Y81343D01*
X104952Y80982D01*
X104722Y80465D01*
X104645Y80000D01*
X106255D01*
G01X98850Y61600D02*
X98543Y61652D01*
X98275Y61858D01*
X98045Y62168D01*
X97892Y62530D01*
X97815Y62943D01*
Y63357D01*
X97892Y63770D01*
X98045Y64132D01*
X98275Y64442D01*
X98543Y64648D01*
X98850Y64700D01*
X99157Y64648D01*
X99425Y64442D01*
X99655Y64132D01*
X99808Y63770D01*
X99885Y63357D01*
Y62943D01*
X99808Y62530D01*
X99655Y62168D01*
X99425Y61858D01*
X99157Y61652D01*
X98850Y61600D01*
G01X99157Y62427D02*
X99617Y61600D01*
G01X101107Y62065D02*
X101337Y61807D01*
X101605Y61652D01*
X101950Y61600D01*
X102295Y61703D01*
X102563Y61910D01*
X102755Y62272D01*
X102793Y62685D01*
X102717Y63098D01*
X102525Y63357D01*
X102257Y63563D01*
X101988Y63615D01*
X101720Y63563D01*
X101375Y63357D01*
X101490Y64700D01*
X102525D01*
G01X90983Y115300D02*
Y118400D01*
X91942D01*
X92248Y118245D01*
X92440Y118038D01*
X92517Y117625D01*
X92440Y117212D01*
X92210Y116953D01*
X91942Y116798D01*
X90983D01*
G01X91942D02*
X92517Y115300D01*
G01X95310D02*
Y118400D01*
X93892Y116178D01*
X95808D01*
G01X98183Y98400D02*
Y101500D01*
X99142D01*
X99448Y101345D01*
X99640Y101138D01*
X99717Y100725D01*
X99640Y100312D01*
X99410Y100053D01*
X99142Y99898D01*
X98183D01*
G01X99142D02*
X99717Y98400D01*
G01X101207Y99020D02*
X101437Y98658D01*
X101743Y98452D01*
X102088Y98400D01*
X102395Y98452D01*
X102702Y98710D01*
X102893Y99020D01*
X102932Y99330D01*
X102855Y99692D01*
X102587Y99950D01*
X102318Y100053D01*
X101973D01*
G01X102318D02*
X102548Y100208D01*
X102740Y100467D01*
X102817Y100777D01*
X102740Y101087D01*
X102548Y101345D01*
X102203Y101500D01*
X101858Y101448D01*
X101513Y101242D01*
G01X114150Y99000D02*
X113843Y99052D01*
X113575Y99258D01*
X113345Y99568D01*
X113192Y99930D01*
X113115Y100343D01*
Y100757D01*
X113192Y101170D01*
X113345Y101532D01*
X113575Y101842D01*
X113843Y102048D01*
X114150Y102100D01*
X114457Y102048D01*
X114725Y101842D01*
X114955Y101532D01*
X115108Y101170D01*
X115185Y100757D01*
Y100343D01*
X115108Y99930D01*
X114955Y99568D01*
X114725Y99258D01*
X114457Y99052D01*
X114150Y99000D01*
G01X114457Y99827D02*
X114917Y99000D01*
G01X116598Y99362D02*
X116867Y99103D01*
X117173Y99000D01*
X117480Y99103D01*
X117748Y99413D01*
X117940Y99878D01*
X118017Y100343D01*
Y100912D01*
X117940Y101377D01*
X117748Y101790D01*
X117518Y101997D01*
X117250Y102100D01*
X116943Y101997D01*
X116713Y101790D01*
X116560Y101480D01*
X116483Y101067D01*
X116560Y100705D01*
X116752Y100343D01*
X116982Y100137D01*
X117250Y100085D01*
X117557Y100188D01*
X117787Y100447D01*
X118017Y100912D01*
G01X114500Y151000D02*
X108000D01*
Y150900D01*
Y134000D01*
X114500D01*
G01X95900Y125000D02*
X102400D01*
Y142000D01*
X100900D01*
X95900D01*
G01X110250Y124200D02*
X109943Y124252D01*
X109675Y124458D01*
X109445Y124768D01*
X109292Y125130D01*
X109215Y125543D01*
Y125957D01*
X109292Y126370D01*
X109445Y126732D01*
X109675Y127042D01*
X109943Y127248D01*
X110250Y127300D01*
X110557Y127248D01*
X110825Y127042D01*
X111055Y126732D01*
X111208Y126370D01*
X111285Y125957D01*
Y125543D01*
X111208Y125130D01*
X111055Y124768D01*
X110825Y124458D01*
X110557Y124252D01*
X110250Y124200D01*
G01X110557Y125027D02*
X111017Y124200D01*
G01X113350D02*
Y127300D01*
X112890Y126680D01*
G01Y124200D02*
X113810D01*
G01X148783Y48900D02*
Y52000D01*
X149742D01*
X150048Y51845D01*
X150240Y51638D01*
X150317Y51225D01*
X150240Y50812D01*
X150010Y50553D01*
X149742Y50398D01*
X148783D01*
G01X149742D02*
X150317Y48900D01*
G01X151807Y49365D02*
X152037Y49107D01*
X152305Y48952D01*
X152650Y48900D01*
X152995Y49003D01*
X153263Y49210D01*
X153455Y49572D01*
X153493Y49985D01*
X153417Y50398D01*
X153225Y50657D01*
X152957Y50863D01*
X152688Y50915D01*
X152420Y50863D01*
X152075Y50657D01*
X152190Y52000D01*
X153225D01*
G01X121583Y37800D02*
Y40900D01*
X122542D01*
X122848Y40745D01*
X123040Y40538D01*
X123117Y40125D01*
X123040Y39712D01*
X122810Y39453D01*
X122542Y39298D01*
X121583D01*
G01X122542D02*
X123117Y37800D01*
G01X125373D02*
X125450Y38472D01*
X125565Y39040D01*
X125718Y39557D01*
X125910Y40125D01*
X126217Y40900D01*
X124683D01*
G01X146483Y90220D02*
X146675Y89910D01*
X146905Y89703D01*
X147173Y89600D01*
X147480Y89703D01*
X147710Y89910D01*
X147940Y90220D01*
X148017Y90633D01*
Y92700D01*
G01X149622Y92183D02*
X149852Y92493D01*
X150120Y92648D01*
X150427Y92700D01*
X150810Y92597D01*
X151078Y92338D01*
X151155Y92028D01*
X151117Y91718D01*
X150963Y91460D01*
X150197Y90943D01*
X149852Y90582D01*
X149622Y90065D01*
X149545Y89600D01*
X151155D01*
G01X150093Y72442D02*
X149863Y72597D01*
X149595Y72700D01*
X149288D01*
X148943Y72545D01*
X148675Y72287D01*
X148483Y71977D01*
X148330Y71460D01*
X148292Y70995D01*
X148368Y70530D01*
X148483Y70220D01*
X148713Y69910D01*
X148982Y69703D01*
X149250Y69600D01*
X149518D01*
X149787Y69703D01*
X150017Y69858D01*
X150208Y70065D01*
G01X152350Y69600D02*
Y72700D01*
X151890Y72080D01*
G01Y69600D02*
X152810D01*
G01X138683Y120720D02*
X138875Y120410D01*
X139105Y120203D01*
X139373Y120100D01*
X139680Y120203D01*
X139910Y120410D01*
X140140Y120720D01*
X140217Y121133D01*
Y123200D01*
G01X141707Y120720D02*
X141937Y120358D01*
X142243Y120152D01*
X142588Y120100D01*
X142895Y120152D01*
X143202Y120410D01*
X143393Y120720D01*
X143432Y121030D01*
X143355Y121392D01*
X143087Y121650D01*
X142818Y121753D01*
X142473D01*
G01X142818D02*
X143048Y121908D01*
X143240Y122167D01*
X143317Y122477D01*
X143240Y122787D01*
X143048Y123045D01*
X142703Y123200D01*
X142358Y123148D01*
X142013Y122942D01*
G01X133500Y100700D02*
Y94200D01*
X133600D01*
X150500D01*
Y100700D01*
G01Y111700D02*
Y118200D01*
X133500D01*
Y116700D01*
Y111700D01*
G01X133883Y144820D02*
X134075Y144510D01*
X134305Y144303D01*
X134573Y144200D01*
X134880Y144303D01*
X135110Y144510D01*
X135340Y144820D01*
X135417Y145233D01*
Y147300D01*
G01X137750Y144200D02*
Y147300D01*
X137290Y146680D01*
G01Y144200D02*
X138210D01*
G01X125500Y134000D02*
X132000D01*
Y151000D01*
X130500D01*
X125500D01*
G54D12*
G01X11350Y132100D02*
Y147900D01*
G01D02*
X15750D01*
G01D02*
X16600Y148750D01*
G01D02*
X17450Y147900D01*
G01D02*
X21850D01*
G01D02*
Y132100D01*
G01D02*
X11350D01*
G01X57200Y33750D02*
X41200D01*
G01D02*
Y41250D01*
G01D02*
X57200D01*
G01D02*
Y33750D01*
G01X71900Y76850D02*
X55900D01*
G01D02*
Y84350D01*
G01D02*
X71900D01*
G01X69400Y105650D02*
X53400D01*
G01D02*
Y113150D01*
G01D02*
X69400D01*
G01X70600Y90550D02*
X54600D01*
G01D02*
Y98050D01*
G01D02*
X70600D01*
G01X52900Y140350D02*
X36900D01*
G01D02*
Y147850D01*
G01D02*
X52900D01*
G01D02*
Y140350D01*
G01X77200Y31250D02*
X61200D01*
G01D02*
Y38750D01*
G01D02*
X77200D01*
G01D02*
Y31250D01*
G01X100400Y89250D02*
X84400D01*
G01D02*
Y96750D01*
G01X102000Y71050D02*
X86000D01*
G01D02*
Y78550D01*
G01D02*
X102000D01*
G01X71900Y84350D02*
Y76850D01*
G01X100400Y106150D02*
X84400D01*
G01D02*
Y113650D01*
G01D02*
X100400D01*
G01X84400Y96750D02*
X100400D01*
G01X69400Y113150D02*
Y105650D01*
G01X70600Y98050D02*
Y90550D01*
G01X134700Y28750D02*
X118700D01*
G01D02*
Y36250D01*
G01D02*
X134700D01*
G01X100400Y96750D02*
Y89250D01*
G01X102000Y78550D02*
Y71050D01*
G01X100400Y113650D02*
Y106150D01*
G01X134700Y36250D02*
Y28750D01*
G01X147450Y53100D02*
Y37100D01*
G01D02*
X139950D01*
G01D02*
Y53100D01*
G01D02*
X147450D01*
G01X146950Y76100D02*
Y60100D01*
G01D02*
X139450D01*
G01D02*
Y76100D01*
G01D02*
X146950D01*
M02*
