G04 ================== begin FILE IDENTIFICATION RECORD ==================*
G04 Layout Name:  C:/orcadnou/allegro/ULTIMUL_PCBEDIT.brd*
G04 Film Name:    TOP*
G04 File Format:  Gerber RS274X*
G04 File Origin:  Cadence Allegro 17.2-S025*
G04 Origin Date:  Fri Dec 13 14:30:19 2024*
G04 *
G04 Layer:  ETCH/TOP*
G04 Layer:  PIN/TOP*
G04 Layer:  VIA CLASS/TOP*
G04 *
G04 Offset:    (0.00 0.00)*
G04 Mirror:    No*
G04 Mode:      Positive*
G04 Rotation:  0*
G04 FullContactRelief:  No*
G04 UndefLineWidth:     0.30*
G04 ================== end FILE IDENTIFICATION RECORD ====================*
%FSLAX25Y25*MOIN*%
%IR0*IPPOS*OFA0.00000B0.00000*MIA0B0*SFA1.00000B1.00000*%
%ADD12R,.1X.06*%
%ADD18R,.06X.1*%
%ADD16C,.034*%
%ADD17R,.05X.05*%
%ADD13R,.07087X.12008*%
%ADD11R,.12008X.07087*%
%ADD10C,.03937*%
%ADD19R,.036X.05*%
%ADD14R,.05X.036*%
%ADD15R,.076X.048*%
%ADD20C,.016*%
%ADD21C,.018*%
%ADD22C,.07878*%
G75*
%LPD*%
G75*
G36*
G01X3938Y3938D02*
Y153542D01*
X48422D01*
G02X48704Y152859I-1J-400D01*
G01X46798Y150953D01*
Y148201D01*
G02X46599Y148001I-200J0D01*
G03X45198Y146600I0J-1401D01*
G01Y141600D01*
G03X46599Y140199I1401J0D01*
G02X46798Y139999I-1J-200D01*
G01Y133553D01*
X42000Y128755D01*
X40253Y130502D01*
X23847D01*
X19898Y126553D01*
Y123901D01*
G02X19699Y123701I-200J0D01*
G03X18298Y122300I0J-1401D01*
G01Y119745D01*
G02X17632Y119446I-400J0D01*
G03X16700Y119802I-933J-1045D01*
G01X11700D01*
G03X10298Y118400I0J-1402D01*
G01Y114800D01*
G03X11699Y113399I1401J0D01*
G02X11898Y113199I-1J-200D01*
G01Y101953D01*
X9672Y99726D01*
Y94074D01*
X11549Y92196D01*
G02X11540Y91621I-282J-283D01*
G03X11098Y90600I960J-1022D01*
G01Y87000D01*
G03X12500Y85598I1402J0D01*
G01X17500D01*
G03X18432Y85954I-1J1401D01*
G02X19098Y85655I266J-299D01*
G01Y83200D01*
G03X20500Y81798I1402J0D01*
G01X25500D01*
G03X26902Y83200I0J1402D01*
G01Y86800D01*
G03X25500Y88202I-1402J0D01*
G01X20500D01*
G03X19568Y87846I1J-1401D01*
G02X18902Y88145I-266J299D01*
G01Y89555D01*
G02X19568Y89854I400J0D01*
G03X20500Y89498I933J1045D01*
G01X25500D01*
G03X26760Y90286I0J1401D01*
G01X26815Y90398D01*
X27995D01*
X28999Y91402D01*
G02X29649Y91277I283J-283D01*
G03X31291Y89643I2851J1223D01*
G02X31438Y89014I-156J-368D01*
G03X31098Y88100I1062J-915D01*
G01Y84500D01*
G03X32500Y83098I1402J0D01*
G01X37500D01*
G03X38432Y83454I-1J1401D01*
G02X39098Y83155I266J-299D01*
G01Y80700D01*
G03X40500Y79298I1402J0D01*
G01X40798D01*
Y63612D01*
X21829Y44642D01*
G02X21203Y44720I-283J283D01*
G03X20000Y45402I-1203J-720D01*
G01X10000D01*
G03X8598Y44000I0J-1402D01*
G01Y38000D01*
G03X10000Y36598I1402J0D01*
G01X12798D01*
Y32488D01*
X20696Y24591D01*
G02X20366Y23911I-283J-283D01*
G03X23692Y21066I-466J-3911D01*
G01X23660Y21178D01*
X23884Y21402D01*
X24088Y21198D01*
X25394D01*
Y19856D01*
G03X26796Y18455I1402J1D01*
G01X38804D01*
G03X40206Y19856I0J1402D01*
G01Y21198D01*
X75688D01*
X91588Y5298D01*
X143412D01*
X147202Y9088D01*
Y30912D01*
X145902Y32212D01*
Y36998D01*
X146200D01*
G03X147602Y38400I0J1402D01*
G01Y43400D01*
G03X146200Y44802I-1402J0D01*
G01X141200D01*
G03X139798Y43400I0J-1402D01*
G01Y38400D01*
G03X141200Y36998I1402J0D01*
G01X141498D01*
Y30388D01*
X142798Y29088D01*
Y10912D01*
X141588Y9702D01*
X93412D01*
X93256Y9857D01*
G02X93398Y10198I142J141D01*
G01X113453D01*
X117302Y14047D01*
Y29747D01*
X117753Y30198D01*
X118598D01*
X118599Y29999D01*
G03X120000Y28598I1401J0D01*
G01X125000D01*
G03X126402Y30000I0J1402D01*
G01Y35000D01*
G03X125000Y36402I-1402J0D01*
G01X120000D01*
G03X118599Y35001I0J-1401D01*
G01X118598Y34802D01*
X115847D01*
X112698Y31653D01*
Y15953D01*
X111547Y14802D01*
X93453D01*
X93302Y14953D01*
Y18598D01*
X94000D01*
G03X95402Y20000I0J1402D01*
G01Y30000D01*
G03X94000Y31402I-1402J0D01*
G01X88000D01*
G03X86598Y30000I0J-1402D01*
G01Y27302D01*
X80338D01*
X78838Y28802D01*
X67302D01*
Y30899D01*
G02X67501Y31099I200J0D01*
G03X68902Y32500I0J1401D01*
G01Y37500D01*
G03X67500Y38902I-1402J0D01*
G01X62500D01*
G03X61098Y37500I0J-1402D01*
G01Y32500D01*
G03X62499Y31099I1401J0D01*
G02X62698Y30899I-1J-200D01*
G01Y30253D01*
X62247Y29802D01*
X47753D01*
X47302Y30253D01*
Y33399D01*
G02X47501Y33599I200J0D01*
G03X48902Y35000I0J1401D01*
G01Y40000D01*
G03X47500Y41402I-1402J0D01*
G01X42500D01*
G03X41098Y40000I0J-1402D01*
G01Y35000D01*
G03X42499Y33599I1401J0D01*
G02X42698Y33399I-1J-200D01*
G01Y28347D01*
X44761Y26284D01*
G02X44478Y25602I-283J-282D01*
G01X40206D01*
Y26944D01*
G03X38804Y28345I-1402J-1D01*
G01X26796D01*
G03X25394Y26944I0J-1402D01*
G01Y26602D01*
G02X25053Y26460I-200J0D01*
G01X17202Y34312D01*
Y36598D01*
X20000D01*
G03X21402Y38000I0J1402D01*
G01Y38798D01*
X22212D01*
X44516Y61102D01*
G02X45198Y60819I282J-283D01*
G01Y57947D01*
X50445Y52700D01*
X49798Y52053D01*
Y41747D01*
X49949Y41596D01*
G02X49940Y41021I-282J-283D01*
G03X49498Y40000I960J-1022D01*
G01Y35000D01*
G03X50900Y33598I1402J0D01*
G01X55900D01*
G03X57302Y35000I0J1402D01*
G01Y40000D01*
G03X55901Y41401I-1401J0D01*
G02X55702Y41601I1J200D01*
G01Y42353D01*
X54402Y43653D01*
Y50147D01*
X54653Y50398D01*
X65046D01*
G02X65326Y49713I0J-400D01*
G03X67270Y44407I2174J-2213D01*
G01X67344Y44401D01*
X71098Y40647D01*
Y39101D01*
G02X70899Y38901I-200J0D01*
G03X69498Y37500I0J-1401D01*
G01Y32500D01*
G03X70900Y31098I1402J0D01*
G01X75900D01*
G03X77302Y32500I0J1402D01*
G01Y37500D01*
G03X75901Y38901I-1401J0D01*
G02X75702Y39101I1J200D01*
G01Y42553D01*
X70599Y47656D01*
X70593Y47730D01*
G03X69674Y49713I-3093J-229D01*
G02X69954Y50398I280J285D01*
G01X73285D01*
X73340Y50286D01*
G03X74600Y49498I1260J613D01*
G01X79600D01*
G03X80532Y49854I-1J1401D01*
G02X81198Y49555I266J-299D01*
G01Y47100D01*
G03X82600Y45698I1402J0D01*
G01X87600D01*
G03X88563Y46082I-1J1402D01*
G01X89747Y44898D01*
X95153D01*
X96453Y46198D01*
X99698D01*
X99699Y45999D01*
G03X101100Y44598I1401J0D01*
G01X104700D01*
G03X106101Y45999I0J1401D01*
G01X106102Y46198D01*
X116953D01*
X119802Y49047D01*
Y53499D01*
X114499Y58802D01*
X109902D01*
X109901Y59001D01*
G03X109114Y60260I-1401J-1D01*
G01X109001Y60315D01*
Y71753D01*
X103653Y77102D01*
X102102D01*
X102101Y77301D01*
G03X100700Y78702I-1401J0D01*
G01X95700D01*
G03X94298Y77300I0J-1402D01*
G01Y72300D01*
G03X95700Y70898I1402J0D01*
G01X100700D01*
G03X101919Y71609I-1J1402D01*
G02X102550Y71695I348J-197D01*
G01X104398Y69847D01*
Y60315D01*
X104286Y60260D01*
G03X103498Y59000I613J-1260D01*
G01Y54000D01*
G03X103854Y53068I1401J1D01*
G02X103555Y52402I-299J-266D01*
G01X102145D01*
G02X101846Y53068I0J400D01*
G03X102202Y54000I-1045J933D01*
G01Y59000D01*
G03X100800Y60402I-1402J0D01*
G01X97200D01*
G03X96179Y59960I1J-1402D01*
G02X95604Y59951I-292J273D01*
G01X95253Y60302D01*
X89447D01*
X88571Y59425D01*
X88432Y59528D01*
G03X87600Y59802I-833J-1128D01*
G01X82600D01*
G03X81198Y58400I0J-1402D01*
G01Y55845D01*
G02X80532Y55546I-400J0D01*
G03X79600Y55902I-933J-1045D01*
G01X74600D01*
G03X73340Y55114I0J-1401D01*
G01X73285Y55002D01*
X54653D01*
X49802Y59853D01*
Y78494D01*
X54802Y83494D01*
Y90253D01*
X52302Y92753D01*
Y95953D01*
X48453Y99802D01*
X46522D01*
G02X46239Y100484I0J400D01*
G01X52853Y107098D01*
X53298D01*
X53299Y106899D01*
G03X54699Y105499I1401J1D01*
G02X54898Y105299I-1J-200D01*
G01Y98447D01*
X54949Y98396D01*
G02X54940Y97821I-282J-283D01*
G03X54498Y96800I960J-1022D01*
G01Y91800D01*
G03X55899Y90399I1401J0D01*
G02X56098Y90199I-1J-200D01*
G01Y86247D01*
X57398Y84947D01*
Y84701D01*
G02X57199Y84501I-200J0D01*
G03X55798Y83100I0J-1401D01*
G01Y78100D01*
G03X57199Y76699I1401J0D01*
G02X57398Y76499I-1J-200D01*
G01Y65847D01*
X60547Y62698D01*
X76653D01*
X79802Y65847D01*
Y120953D01*
X73753Y127002D01*
X68315D01*
X68260Y127114D01*
G03X67000Y127902I-1260J-613D01*
G01X62000D01*
G03X61068Y127546I1J-1401D01*
G02X60402Y127845I-266J299D01*
G01Y129255D01*
G02X61068Y129554I400J0D01*
G03X62000Y129198I933J1045D01*
G01X67000D01*
G03X68402Y130600I0J1402D01*
G01Y134200D01*
G03X67001Y135601I-1401J0D01*
G02X66802Y135801I1J200D01*
G01Y141453D01*
X61853Y146402D01*
X53002D01*
X53001Y146601D01*
G03X51601Y148001I-1401J-1D01*
G02X51402Y148201I1J200D01*
G01Y149047D01*
X52053Y149698D01*
X97047D01*
X106547Y140198D01*
X109098D01*
Y137500D01*
G03X110500Y136098I1402J0D01*
G01X111198D01*
Y135147D01*
X116147Y130198D01*
X116198D01*
Y123601D01*
G02X115999Y123401I-200J0D01*
G03X114598Y122000I0J-1401D01*
G01Y119445D01*
G02X113932Y119146I-400J0D01*
G03X113000Y119502I-933J-1045D01*
G01X108000D01*
G03X106740Y118714I0J-1401D01*
G01X106685Y118602D01*
X105647D01*
X103498Y116453D01*
Y103300D01*
G03X104173Y101673I2301J1D01*
G01X104298Y101547D01*
Y97367D01*
X106467Y95198D01*
X107747D01*
X108549Y94396D01*
G02X108540Y93821I-282J-283D01*
G03X108098Y92800I960J-1022D01*
G01Y89200D01*
G03X109500Y87798I1402J0D01*
G01X114500D01*
G03X115432Y88154I-1J1401D01*
G02X116098Y87855I266J-299D01*
G01Y85400D01*
G03X117499Y83999I1401J0D01*
G02X117698Y83799I-1J-200D01*
G01Y70953D01*
X117344Y70599D01*
X117270Y70593D01*
G03X120593Y67270I230J-3093D01*
G01X120599Y67344D01*
X122302Y69047D01*
Y83799D01*
G02X122501Y83999I200J0D01*
G03X123902Y85400I0J1401D01*
G01Y89000D01*
G03X122500Y90402I-1402J0D01*
G01X117500D01*
G03X116568Y90046I1J-1401D01*
G02X115902Y90345I-266J299D01*
G01Y91755D01*
G02X116568Y92054I400J0D01*
G03X117500Y91698I933J1045D01*
G01X122500D01*
G03X123902Y93100I0J1402D01*
G01Y96700D01*
G03X123715Y97399I-1402J-1D01*
G02X123888Y97698I173J99D01*
G01X124047D01*
X125198Y96547D01*
Y59047D01*
X128598Y55647D01*
Y36601D01*
G02X128399Y36401I-200J0D01*
G03X126998Y35000I0J-1401D01*
G01Y30000D01*
G03X128400Y28598I1402J0D01*
G01X133400D01*
G03X134802Y30000I0J1402D01*
G01Y35000D01*
G03X133401Y36401I-1401J0D01*
G02X133202Y36601I1J200D01*
G01Y57553D01*
X129802Y60953D01*
Y66278D01*
G02X130484Y66561I400J0D01*
G01X135624Y61422D01*
X139287D01*
X139307Y61244D01*
G03X140700Y59998I1393J156D01*
G01X143978D01*
G02X144261Y59316I0J-400D01*
G01X141398Y56453D01*
Y53401D01*
G02X141199Y53201I-200J0D01*
G03X139798Y51800I0J-1401D01*
G01Y46800D01*
G03X141200Y45398I1402J0D01*
G01X146200D01*
G03X147602Y46800I0J1402D01*
G01Y51800D01*
G03X146201Y53201I-1401J0D01*
G02X146002Y53401I1J200D01*
G01Y54547D01*
X146553Y55098D01*
X149653D01*
X152978Y58424D01*
Y62876D01*
X149653Y66202D01*
X147102D01*
X147101Y66401D01*
G03X145700Y67802I-1401J0D01*
G01X140700D01*
G03X139299Y66401I0J-1401D01*
G01X139298Y66202D01*
X138347D01*
X138170Y66024D01*
X137530D01*
X133002Y70553D01*
Y102753D01*
X128453Y107302D01*
X109047D01*
X108784Y107039D01*
G02X108102Y107322I-282J283D01*
G01Y113098D01*
X113000D01*
G03X113932Y113454I-1J1401D01*
G02X114598Y113155I266J-299D01*
G01Y110700D01*
G03X116000Y109298I1402J0D01*
G01X121000D01*
G03X122260Y110086I0J1401D01*
G01X122315Y110198D01*
X126453D01*
X129602Y113347D01*
Y119353D01*
X126453Y122502D01*
X122315D01*
X122260Y122614D01*
G03X121001Y123401I-1260J-614D01*
G02X120802Y123601I1J200D01*
G01Y132453D01*
X118453Y134802D01*
X118053D01*
X117168Y135687D01*
G02X117240Y136310I283J283D01*
G03X117902Y137500I-740J1191D01*
G01Y147500D01*
G03X116500Y148902I-1402J0D01*
G01X110500D01*
G03X109098Y147500I0J-1402D01*
G01Y144802D01*
X108453D01*
X100396Y152859D01*
G02X100678Y153542I283J283D01*
G01X153542D01*
Y3938D01*
X3938D01*
G37*
%LPC*%
G75*
G36*
G01X122098Y137500D02*
Y147500D01*
G02X123500Y148902I1402J0D01*
G01X129500D01*
G02X130902Y147500I0J-1402D01*
G01Y137500D01*
G02X129500Y136098I-1402J0D01*
G01X123500D01*
G02X122098Y137500I0J1402D01*
G37*
G36*
G01X135598Y109700D02*
Y115700D01*
G02X137000Y117102I1402J0D01*
G01X147000D01*
G02X148402Y115700I0J-1402D01*
G01Y109700D01*
G02X147000Y108298I-1402J0D01*
G01X137000D01*
G02X135598Y109700I0J1402D01*
G37*
G36*
G01X92498Y128500D02*
Y138500D01*
G02X93900Y139902I1402J0D01*
G01X99900D01*
G02X101302Y138500I0J-1402D01*
G01Y128500D01*
G02X99900Y127098I-1402J0D01*
G01X93900D01*
G02X92498Y128500I0J1402D01*
G37*
G36*
G01X99598Y20000D02*
Y30000D01*
G02X101000Y31402I1402J0D01*
G01X107000D01*
G02X108402Y30000I0J-1402D01*
G01Y20000D01*
G02X107000Y18598I-1402J0D01*
G01X101000D01*
G02X99598Y20000I0J1402D01*
G37*
G36*
G01X7555Y63996D02*
Y76004D01*
G02X8956Y77406I1402J0D01*
G01X16044D01*
G02X17445Y76004I-1J-1402D01*
G01Y63996D01*
G02X16044Y62594I-1402J0D01*
G01X8956D01*
G02X7555Y63996I1J1402D01*
G37*
G36*
G01X8598Y51000D02*
Y57000D01*
G02X10000Y58402I1402J0D01*
G01X20000D01*
G02X21402Y57000I0J-1402D01*
G01Y51000D01*
G02X20000Y49598I-1402J0D01*
G01X10000D01*
G02X8598Y51000I0J1402D01*
G37*
G36*
G01X21802Y133600D02*
G02X20400Y132198I-1402J0D01*
G01X12800D01*
G02X11398Y133600I0J1402D01*
G01Y146300D01*
G02X12800Y147702I1402J0D01*
G01X20400D01*
G02X21777Y146564I0J-1402D01*
G01X21808Y146402D01*
X36798D01*
X36799Y146601D01*
G02X38200Y148002I1401J0D01*
G01X43200D01*
G02X44602Y146600I0J-1402D01*
G01Y141600D01*
G02X43200Y140198I-1402J0D01*
G01X38200D01*
G02X36799Y141599I0J1401D01*
G01X36798Y141798D01*
X22953D01*
X22753Y141598D01*
X21802D01*
Y133600D01*
G37*
G36*
G01X92102Y107400D02*
G02X90700Y105998I-1402J0D01*
G01X85700D01*
G02X84298Y107400I0J1402D01*
G01Y112400D01*
G02X85699Y113801I1401J0D01*
G03X85898Y114001I-1J200D01*
G01Y115847D01*
X81598Y120147D01*
Y127098D01*
X80900D01*
G02X79498Y128500I0J1402D01*
G01Y138500D01*
G02X80900Y139902I1402J0D01*
G01X86900D01*
G02X88302Y138500I0J-1402D01*
G01Y128500D01*
G02X86900Y127098I-1402J0D01*
G01X86202D01*
Y122053D01*
X90502Y117753D01*
Y114001D01*
G03X90701Y113801I200J0D01*
G02X92102Y112400I0J-1401D01*
G01Y107400D01*
G37*
G36*
G01Y90500D02*
G02X90700Y89098I-1402J0D01*
G01X85700D01*
G02X84298Y90500I0J1402D01*
G01Y95500D01*
G02X85699Y96901I1401J0D01*
G03X85898Y97101I-1J200D01*
G01Y101553D01*
X89147Y104802D01*
X94047D01*
X94298Y105053D01*
Y105799D01*
G03X94099Y105999I-200J0D01*
G02X92698Y107400I0J1401D01*
G01Y112400D01*
G02X94100Y113802I1402J0D01*
G01X99100D01*
G02X100502Y112400I0J-1402D01*
G01Y107400D01*
G02X99101Y105999I-1401J0D01*
G03X98902Y105799I1J-200D01*
G01Y103147D01*
X95953Y100198D01*
X91053D01*
X90502Y99647D01*
Y97101D01*
G03X90701Y96901I200J0D01*
G02X92102Y95500I0J-1401D01*
G01Y90500D01*
G37*
G36*
G01X93702Y72300D02*
G02X92300Y70898I-1402J0D01*
G01X87300D01*
G02X85898Y72300I0J1402D01*
G01Y77300D01*
G02X87299Y78701I1401J0D01*
G03X87498Y78901I-1J200D01*
G01Y79653D01*
X87698Y79853D01*
Y83453D01*
X91447Y87202D01*
X93947D01*
X94298Y87553D01*
Y88899D01*
G03X94099Y89099I-200J0D01*
G02X92698Y90500I0J1401D01*
G01Y95500D01*
G02X94100Y96902I1402J0D01*
G01X99100D01*
G02X100502Y95500I0J-1402D01*
G01Y90500D01*
G02X99101Y89099I-1401J0D01*
G03X98902Y88899I1J-200D01*
G01Y85647D01*
X95853Y82598D01*
X93353D01*
X92302Y81547D01*
Y78713D01*
X92476Y78690D01*
G02X93702Y77300I-175J-1390D01*
G01Y72300D01*
G37*
G36*
G01X147102Y69800D02*
G02X145700Y68398I-1402J0D01*
G01X140700D01*
G02X139298Y69800I0J1402D01*
G01Y74800D01*
G02X140699Y76201I1401J0D01*
G03X140898Y76401I-1J200D01*
G01Y79555D01*
X137196D01*
G02X135794Y80956I0J1402D01*
G01Y88044D01*
G02X137196Y89445I1402J-1D01*
G01X140898D01*
Y90347D01*
X139698Y91547D01*
Y95298D01*
X137000D01*
G02X135598Y96700I0J1402D01*
G01Y102700D01*
G02X137000Y104102I1402J0D01*
G01X147000D01*
G02X148402Y102700I0J-1402D01*
G01Y96700D01*
G02X147000Y95298I-1402J0D01*
G01X144302D01*
Y93453D01*
X145502Y92253D01*
Y89445D01*
X149204D01*
G02X150606Y88044I0J-1402D01*
G01Y80956D01*
G02X149204Y79555I-1402J1D01*
G01X145502D01*
Y76401D01*
G03X145701Y76201I200J0D01*
G02X147102Y74800I0J-1401D01*
G01Y69800D01*
G37*
G54D22*
X137500Y20000D03*
X137700Y137600D03*
%LPD*%
G75*
G54D10*
X19900Y20000D03*
X137500D03*
X137700Y137600D03*
G54D20*
G01X15000Y41000D02*
Y33400D01*
X25000Y23400D01*
X32800D01*
G01X43000Y82500D02*
Y62700D01*
X21300Y41000D01*
X15000D01*
G01X32800Y23400D02*
X76600D01*
X92500Y7500D01*
X142500D01*
X145000Y10000D01*
Y30000D01*
X143700Y31300D01*
Y40900D01*
G54D11*
X32800Y23400D03*
X143200Y84500D03*
G54D21*
G01X15000Y54000D02*
Y60700D01*
G01D02*
X16274Y61974D01*
X19926D01*
X21726Y63774D01*
Y69400D01*
X21126Y70000D01*
G01X15000Y49398D02*
Y54000D01*
G01X8398D02*
X15000D01*
G01D02*
X21602D01*
G01X15000Y88800D02*
Y92000D01*
X11973Y95027D01*
Y98773D01*
X14200Y101000D01*
Y105000D01*
G01X12500Y70000D02*
Y78300D01*
G01X15200Y128000D02*
X14800Y127600D01*
X9300D01*
X7500Y125800D01*
Y85200D01*
X12600Y80100D01*
X14300D01*
G01D02*
X22400D01*
X23000Y80700D01*
G01X21126Y70000D02*
X12500D01*
G01Y78300D02*
X14300Y80100D01*
G01X23000Y80700D02*
Y85000D01*
G01D02*
Y88402D01*
G01X18898Y85000D02*
X23000D01*
G01D02*
X27102D01*
G01X12500Y62394D02*
Y70000D01*
G01X7354D02*
X12500D01*
G01X35000Y107500D02*
X27500Y115000D01*
Y123200D01*
X29300Y125000D01*
X32200D01*
X34000Y123200D01*
Y116700D01*
G01X35000Y107500D02*
X24000D01*
X22200Y109300D01*
Y112800D01*
G01X57200Y109400D02*
X51900D01*
X45000Y102500D01*
X16700D01*
X14200Y105000D01*
G01D02*
Y116600D01*
G01X22200Y120500D02*
Y125600D01*
X24800Y128200D01*
X39300D01*
X42000Y125500D01*
G01X50000Y91800D02*
Y95000D01*
X47500Y97500D01*
X31842D01*
X27042Y92700D01*
X23000D01*
G01X15400Y128000D02*
X15200D01*
G01D02*
X16600Y129400D01*
G01D02*
Y136000D01*
G01X11198D02*
X16600D01*
G01D02*
X22002D01*
G01X40700Y144100D02*
X22000D01*
X21800Y143900D01*
X16600D01*
G01X63200Y27500D02*
X46800D01*
X45000Y29300D01*
Y37500D01*
G01X77100Y52700D02*
X53700D01*
G01D02*
X52100Y51100D01*
Y42700D01*
X53400Y41400D01*
Y37500D01*
G01X53700Y52700D02*
X47500Y58900D01*
Y79447D01*
X52500Y84447D01*
Y89300D01*
X50000Y91800D01*
G01X32500Y92500D02*
X35000Y90000D01*
Y86300D01*
G01X58400Y94300D02*
Y87200D01*
X59700Y85900D01*
Y80600D01*
G01X64500Y124700D02*
X72800D01*
X77500Y120000D01*
Y66800D01*
X75700Y65000D01*
X61500D01*
X59700Y66800D01*
Y80600D01*
G01X43000Y90200D02*
X48400D01*
X50000Y91800D01*
G01X42000Y112900D02*
X45700D01*
X47500Y111100D01*
Y109526D01*
X45474Y107500D01*
X35000D01*
G01X57200Y109400D02*
Y99400D01*
X58400Y98200D01*
Y94300D01*
G01X42000Y125500D02*
Y120600D01*
G01X65600Y109400D02*
Y116354D01*
X64727Y117227D01*
X57773D01*
X56500Y118500D01*
Y128500D01*
G01X49100Y144100D02*
Y132600D01*
X42000Y125500D01*
G01X49100Y144100D02*
X60900D01*
X64500Y140500D01*
Y132400D01*
G01X49100Y144100D02*
Y150000D01*
X51100Y152000D01*
X98000D01*
X107500Y142500D01*
X113500D01*
G01X65000Y35000D02*
Y29300D01*
X63200Y27500D01*
G01X122500Y32500D02*
X116800D01*
X115000Y30700D01*
Y15000D01*
X112500Y12500D01*
X92500D01*
X91000Y14000D01*
Y25000D01*
G01D02*
X79385D01*
X77885Y26500D01*
X64200D01*
X63200Y27500D01*
G01X67500Y47500D02*
X73400Y41600D01*
Y35000D01*
G01X85100Y56600D02*
X89000D01*
X90400Y58000D01*
X94300D01*
X95800Y56500D01*
X99000D01*
G01X102900Y48500D02*
X95500D01*
X94200Y47200D01*
X90700D01*
X89000Y48900D01*
X85100D01*
G01X96600Y93000D02*
Y86600D01*
X94900Y84900D01*
X92400D01*
X90000Y82500D01*
Y78900D01*
X89800Y78700D01*
Y74800D01*
G01X68100Y80600D02*
Y74400D01*
X72500Y70000D01*
G01X68100Y80600D02*
Y86900D01*
X66800Y88200D01*
Y94300D01*
G01X88200Y109900D02*
Y116800D01*
X83900Y121100D01*
Y133500D01*
G01X66800Y94300D02*
Y104300D01*
X65600Y105500D01*
Y109400D01*
G01X88200Y93000D02*
Y100600D01*
X90100Y102500D01*
X95000D01*
X96600Y104100D01*
Y109900D01*
G01X104000Y25000D02*
Y31400D01*
X103926Y31474D01*
G01X104000Y18398D02*
Y25000D01*
G01X99398D02*
X104000D01*
G01D02*
X108602D01*
G01X103926Y31474D02*
Y37326D01*
X105200Y38600D01*
X114300D01*
X122300Y46600D01*
Y54300D01*
X112500Y64100D01*
Y73900D01*
X102600Y83800D01*
Y113600D01*
X97600Y118600D01*
G01X106700Y56500D02*
X113546D01*
X117500Y52546D01*
Y50000D01*
X116000Y48500D01*
X102900D01*
G01X106700Y56500D02*
Y70800D01*
X102700Y74800D01*
X98200D01*
G01X117500Y67500D02*
X120000Y70000D01*
Y87200D01*
G01X118500Y112500D02*
X125500D01*
X127300Y114300D01*
Y118400D01*
X125500Y120200D01*
X118500D01*
G01X113500Y142500D02*
Y136100D01*
X117100Y132500D01*
X117500D01*
X118500Y131500D01*
Y120200D01*
G01X96900Y133500D02*
Y119300D01*
G01D02*
X97600Y118600D01*
G01X143200Y63900D02*
X139300D01*
X139123Y63723D01*
X136577D01*
X130700Y69600D01*
Y101800D01*
X127500Y105000D01*
X110000D01*
X107500Y102500D01*
X106600D01*
G01D02*
X105800Y103300D01*
Y115500D01*
X106600Y116300D01*
X110500D01*
G01X106600Y102500D02*
Y98320D01*
X107420Y97500D01*
X108700D01*
X112000Y94200D01*
Y91000D01*
G01X120000Y94900D02*
Y98100D01*
X121900Y100000D01*
X125000D01*
X127500Y97500D01*
Y60000D01*
X130900Y56600D01*
Y32500D01*
G01X96900Y133500D02*
Y140102D01*
G01X92298Y133500D02*
X96900D01*
G01D02*
X101502D01*
G01X143700Y49300D02*
Y55500D01*
X145600Y57400D01*
X148700D01*
X150677Y59377D01*
Y61923D01*
X148700Y63900D01*
X143200D01*
G01Y84500D02*
Y72300D01*
G01X142000Y99700D02*
Y92500D01*
X143200Y91300D01*
Y84500D01*
G01X148700Y134700D02*
Y127500D01*
X142000Y120800D01*
G01D02*
Y112700D01*
G01Y108098D02*
Y112700D01*
G01X135398D02*
X142000D01*
G01D02*
X148602D01*
G01X148600Y134500D02*
Y134600D01*
X148700Y134700D01*
G01D02*
Y141100D01*
X144100Y145700D01*
X137300D01*
X134100Y142500D01*
G01D02*
X126500D01*
G01Y135898D02*
Y142500D01*
G01D02*
Y149102D01*
G01X121898Y142500D02*
X126500D01*
G54D12*
X15000Y41000D03*
Y54000D03*
X142000Y99700D03*
Y112700D03*
G54D13*
X12500Y70000D03*
G54D14*
X23000Y85000D03*
Y92700D03*
X15000Y88800D03*
X22200Y112800D03*
Y120500D03*
X14200Y116600D03*
X43000Y82500D03*
Y90200D03*
X35000Y86300D03*
X42000Y112900D03*
Y120600D03*
X34000Y116700D03*
X56500Y128500D03*
X85100Y48900D03*
Y56600D03*
X77100Y52700D03*
X64500Y124700D03*
Y132400D03*
X120000Y87200D03*
X112000Y91000D03*
X118500Y112500D03*
Y120200D03*
X110500Y116300D03*
X120000Y94900D03*
G54D15*
X16600Y143900D03*
Y136000D03*
G54D16*
X15400Y128000D03*
X35000Y107500D03*
X32500Y92500D03*
X67500Y47500D03*
X72500Y70000D03*
X117500Y67500D03*
X97600Y118600D03*
X148600Y134500D03*
G54D17*
X45000Y37500D03*
X53400D03*
X59700Y80600D03*
X57200Y109400D03*
X58400Y94300D03*
X40700Y144100D03*
X49100D03*
X65000Y35000D03*
X73400D03*
X88200Y93000D03*
X89800Y74800D03*
X68100Y80600D03*
X88200Y109900D03*
X65600Y109400D03*
X66800Y94300D03*
X122500Y32500D03*
X96600Y93000D03*
X98200Y74800D03*
X96600Y109900D03*
X130900Y32500D03*
X143700Y40900D03*
Y49300D03*
X143200Y63900D03*
Y72300D03*
G54D18*
X91000Y25000D03*
X83900Y133500D03*
X104000Y25000D03*
X113500Y142500D03*
X96900Y133500D03*
X126500Y142500D03*
G54D19*
X106700Y56500D03*
X99000D03*
X102900Y48500D03*
M02*
